<svg width="30" height="38" viewBox="0 0 30 38" fill="none" xmlns="http://www.w3.org/2000/svg">
<path d="M15.035 3.0925C9.24253 3.0925 4.53503 7.8 4.53503 13.5925V18.65C4.53503 19.7175 4.08003 21.345 3.53753 22.255L1.52503 25.5975C0.282532 27.6625 1.14003 29.955 3.41503 30.725C10.9575 33.245 19.095 33.245 26.6375 30.725C28.755 30.025 29.6825 27.5225 28.5275 25.5975L26.515 22.255C25.99 21.345 25.535 19.7175 25.535 18.65V13.5925C25.535 7.8175 20.81 3.0925 15.035 3.0925Z" stroke="#FFD369" stroke-width="1.5" stroke-miterlimit="10" stroke-linecap="round"/>
<path d="M18.2726 3.59999C17.7301 3.44249 17.1701 3.31999 16.5926 3.24999C14.9126 3.03999 13.3026 3.16249 11.7976 3.59999C12.3051 2.30499 13.5651 1.39499 15.0351 1.39499C16.5051 1.39499 17.7651 2.30499 18.2726 3.59999Z" stroke="#FFD369" stroke-width="1.5" stroke-miterlimit="10" stroke-linecap="round" stroke-linejoin="round"/>
<path d="M20.2849 31.355C20.2849 34.2425 17.9224 36.605 15.0349 36.605C13.5999 36.605 12.2699 36.01 11.3249 35.065C10.3799 34.12 9.78491 32.79 9.78491 31.355" stroke="#FFD369" stroke-width="1.5" stroke-miterlimit="10"/>
</svg>
