<svg width="28" height="28" viewBox="0 0 28 28" fill="none" xmlns="http://www.w3.org/2000/svg">
<path d="M13.986 0C6.258 0 0 6.272 0 14C0 21.728 6.258 28 13.986 28C21.728 28 28 21.728 28 14C28 6.272 21.728 0 13.986 0ZM9.1 8.4C10.262 8.4 11.2 9.338 11.2 10.5C11.2 11.662 10.262 12.6 9.1 12.6C7.938 12.6 7 11.662 7 10.5C7 9.338 7.938 8.4 9.1 8.4ZM14 22.4C10.808 22.4 8.092 20.076 7 16.8H21C19.908 20.076 17.192 22.4 14 22.4ZM18.9 12.6C17.738 12.6 16.8 11.662 16.8 10.5C16.8 9.338 17.738 8.4 18.9 8.4C20.062 8.4 21 9.338 21 10.5C21 11.662 20.062 12.6 18.9 12.6Z" fill="#FFD369"/>
</svg>
