<svg width="60" height="33" viewBox="0 0 60 33" fill="none" xmlns="http://www.w3.org/2000/svg">
<path d="M27.0947 27.0113V18.4734C27.0947 17.3688 26.1993 16.4734 25.0947 16.4734H2.75C1.64543 16.4734 0.75 17.3688 0.75 18.4734V27.0113" stroke="#E0CFA1"/>
<path d="M58.7082 27.0113V18.4734C58.7082 17.3688 57.8128 16.4734 56.7082 16.4734H34.3635C33.259 16.4734 32.3635 17.3688 32.3635 18.4734V27.0113" stroke="#E0CFA1"/>
<path d="M43.536 19.1079H15.9224C14.8178 19.1079 13.9224 20.0033 13.9224 21.1079V29.6458H45.536V21.1079C45.536 20.0033 44.6406 19.1079 43.536 19.1079Z" fill="#343434"/>
<path d="M42.9016 32.2803V23.7424C42.9016 22.6379 42.0061 21.7424 40.9016 21.7424H18.5569C17.4523 21.7424 16.5569 22.6379 16.5569 23.7424V32.2803" stroke="#E0CFA1"/>
<ellipse cx="29.7291" cy="11.2045" rx="5.26894" ry="5.26894" fill="#FFD369"/>
<ellipse cx="45.536" cy="5.93556" rx="5.26894" ry="5.26894" fill="#FFD369"/>
<ellipse cx="13.9223" cy="5.93556" rx="5.26894" ry="5.26894" fill="#FFD369"/>
</svg>
