<svg width="28" height="29" viewBox="0 0 28 29" fill="none" xmlns="http://www.w3.org/2000/svg">
<path d="M15.8551 12.1841C14.7012 10.956 13.1363 10.2661 11.5047 10.2661C9.87303 10.2661 8.30818 10.956 7.1542 12.1841L2.80232 16.816C1.64831 18.0446 1 19.711 1 21.4486C1 23.1861 1.64831 24.8525 2.80232 26.0812C3.95632 27.3098 5.52148 28 7.15349 28C8.7855 28 10.3507 27.3098 11.5047 26.0812L13.6799 23.7652M11.5044 16.8159C12.6584 18.044 14.2232 18.7339 15.8549 18.7339C17.4865 18.7339 19.0514 18.044 20.2053 16.8159L24.5572 12.1841C25.7112 10.9554 26.3595 9.28904 26.3595 7.55148C26.3595 5.81392 25.7112 4.14752 24.5572 2.91888C23.4032 1.69024 21.8381 1 20.206 1C18.574 1 17.0089 1.69024 15.8549 2.91888L13.6796 5.23481" stroke="#FFD369" stroke-width="2" stroke-linecap="round" stroke-linejoin="round"/>
</svg>
