<svg width="51" height="51" viewBox="0 0 51 51" fill="none" xmlns="http://www.w3.org/2000/svg">
<path fill-rule="evenodd" clip-rule="evenodd" d="M25.5002 5.16671C14.2704 5.16671 5.16683 14.2702 5.16683 25.5C5.16683 36.7298 14.2704 45.8334 25.5002 45.8334C36.7299 45.8334 45.8335 36.7298 45.8335 25.5C45.8335 14.2702 36.7299 5.16671 25.5002 5.16671ZM0.0834961 25.5C0.0834961 11.4628 11.4629 0.083374 25.5002 0.083374C39.5374 0.083374 50.9168 11.4628 50.9168 25.5C50.9168 39.5373 39.5374 50.9167 25.5002 50.9167C11.4629 50.9167 0.0834961 39.5373 0.0834961 25.5ZM21.1613 16.0778C22.1538 15.0852 23.7631 15.0852 24.7557 16.0778L32.3807 23.7028C33.3733 24.6954 33.3733 26.3047 32.3807 27.2973L24.7557 34.9223C23.7631 35.9149 22.1538 35.9149 21.1613 34.9223C20.1687 33.9297 20.1687 32.3204 21.1613 31.3278L26.989 25.5L21.1613 19.6723C20.1687 18.6797 20.1687 17.0704 21.1613 16.0778Z" fill="#FFD369"/>
</svg>
