<svg width="73" height="79" viewBox="0 0 73 79" fill="none" xmlns="http://www.w3.org/2000/svg">
<g filter="url(#filter0_dddddd_925_173)">
<path d="M17.9998 62.8451C17.7014 62.0058 17.4029 61.1664 17.1045 60.327C16.806 59.4783 16.5076 58.6343 16.2091 57.7949C15.92 58.6343 15.6263 59.4737 15.3278 60.313C15.0294 61.1524 14.7356 61.9964 14.4465 62.8451H17.9998ZM21.9448 66.7902C21.9448 66.8461 21.9355 66.8974 21.9168 66.944C21.9075 66.9813 21.8749 67 21.8189 67C21.7536 67 21.5904 66.9953 21.3293 66.986C21.0775 66.9767 20.8583 66.972 20.6718 66.972C20.3827 66.972 20.0935 66.972 19.8044 66.972C19.5246 66.972 19.2402 66.9813 18.9511 67C18.8019 67.0093 18.648 67.014 18.4894 67.014C18.3402 67.0233 18.191 67.028 18.0418 67.028C17.9951 67.028 17.9625 67.014 17.9438 66.986C17.9345 66.9487 17.9298 66.9114 17.9298 66.8741L17.9438 66.7622C17.9438 66.7342 17.9532 66.7062 17.9718 66.6782C17.9905 66.6409 18.0184 66.6223 18.0558 66.6223H18.7412C18.8252 66.6223 18.9184 66.6036 19.021 66.5663C19.1329 66.529 19.1889 66.4591 19.1889 66.3565C19.1889 66.3285 19.1563 66.2213 19.091 66.0347C19.0257 65.8389 18.9464 65.6057 18.8532 65.3353C18.7599 65.0555 18.662 64.7757 18.5594 64.4959C18.4568 64.2161 18.3682 63.969 18.2936 63.7544C18.219 63.5306 18.1677 63.3861 18.1397 63.3208H14.3206C14.2926 63.4047 14.2366 63.5586 14.1527 63.7824C14.0688 63.9969 13.9755 64.2441 13.8729 64.5239C13.7796 64.8037 13.6817 65.0788 13.5791 65.3492C13.4859 65.6197 13.4066 65.8529 13.3413 66.0487C13.2854 66.2352 13.2574 66.3518 13.2574 66.3985C13.2574 66.529 13.3273 66.613 13.4672 66.6503C13.6071 66.6876 13.7237 66.7062 13.817 66.7062C13.9102 66.7062 13.9942 66.7062 14.0688 66.7062C14.1434 66.7062 14.204 66.7016 14.2506 66.6922C14.2693 66.6922 14.3019 66.6922 14.3486 66.6922C14.4045 66.6829 14.4371 66.6782 14.4465 66.6782C14.5024 66.6782 14.5351 66.7109 14.5444 66.7762C14.5631 66.8415 14.5677 66.8927 14.5584 66.9301C14.5491 66.9674 14.5257 66.9907 14.4884 67C14.4605 67 14.4278 67 14.3905 67C14.1201 67 13.8449 66.9953 13.5651 66.986C13.2854 66.9767 13.0102 66.972 12.7398 66.972C12.5346 66.972 12.3341 66.9767 12.1382 66.986C11.9424 66.9953 11.7419 67 11.5367 67C11.4527 67 11.4108 66.9534 11.4108 66.8601C11.4108 66.7295 11.4761 66.6643 11.6066 66.6643C11.6533 66.6643 11.7092 66.6689 11.7745 66.6782C11.8398 66.6782 11.9097 66.6782 11.9843 66.6782C12.0869 66.6782 12.1895 66.6503 12.2921 66.5943C12.404 66.529 12.4973 66.4171 12.5719 66.2586C12.6185 66.1746 12.7118 65.9508 12.8517 65.5871C12.9916 65.2233 13.1641 64.771 13.3693 64.2301C13.5745 63.6798 13.789 63.0923 14.0128 62.4674C14.246 61.8332 14.4745 61.2037 14.6983 60.5788C14.9221 59.954 15.1226 59.3758 15.2998 58.8442C15.4864 58.3126 15.6356 57.8742 15.7475 57.5291C15.8594 57.1747 15.9154 56.9649 15.9154 56.8996C15.9154 56.881 15.9014 56.8577 15.8734 56.8297C15.8454 56.7924 15.8314 56.7691 15.8314 56.7597C15.8314 56.7224 15.8454 56.6991 15.8734 56.6898C15.9667 56.6711 16.0646 56.6571 16.1672 56.6478C16.2698 56.6385 16.3677 56.6292 16.461 56.6198C16.5822 56.6012 16.7034 56.5872 16.8247 56.5779C16.9459 56.5592 17.0672 56.5452 17.1884 56.5359L20.8117 66.3285C20.849 66.4218 20.9189 66.4964 21.0215 66.5523C21.1334 66.599 21.236 66.6223 21.3293 66.6223C21.4132 66.6223 21.4972 66.6223 21.5811 66.6223C21.6744 66.613 21.7676 66.6083 21.8609 66.6083C21.8982 66.6083 21.9215 66.6316 21.9308 66.6782C21.9402 66.7249 21.9448 66.7622 21.9448 66.7902Z" fill="#393E46"/>
<path d="M30.9178 63.055C30.9178 62.7192 30.8852 62.3788 30.8199 62.0337C30.7546 61.6887 30.6474 61.3762 30.4982 61.0965C30.3489 60.8073 30.1391 60.5742 29.8686 60.397C29.6075 60.2198 29.2718 60.1312 28.8614 60.1312C28.6842 60.1312 28.4697 60.1825 28.2179 60.2851C27.9754 60.3783 27.7889 60.4902 27.6583 60.6208C27.4811 60.7887 27.3459 60.9705 27.2526 61.1664C27.1593 61.3623 27.1081 61.5861 27.0987 61.8379L27.0847 64.1881C27.0847 64.4493 27.0847 64.7151 27.0847 64.9855C27.0847 65.2467 27.0847 65.5125 27.0847 65.7829C27.0847 65.8482 27.0894 65.9368 27.0987 66.0487C27.1174 66.1513 27.136 66.2259 27.1547 66.2725C27.2293 66.4218 27.3739 66.5197 27.5884 66.5663C27.8122 66.6036 27.9941 66.6223 28.1339 66.6223C28.6376 66.6223 29.0666 66.5197 29.421 66.3145C29.7754 66.1093 30.0598 65.8342 30.2743 65.4891C30.4982 65.1441 30.6614 64.7617 30.764 64.342C30.8666 63.913 30.9178 63.484 30.9178 63.055ZM32.3168 63.069C32.3168 63.8151 32.1489 64.4866 31.8132 65.0834C31.4867 65.6803 31.0298 66.1513 30.4422 66.4964C29.864 66.8321 29.1925 67 28.4277 67C28.092 67 27.7562 66.9534 27.4205 66.8601C27.0847 66.7668 26.7676 66.7202 26.4692 66.7202C26.4039 66.7202 26.334 66.7249 26.2594 66.7342C26.1847 66.7435 26.1101 66.7482 26.0355 66.7482C25.877 66.7482 25.7977 66.6643 25.7977 66.4964C25.7977 66.4404 25.807 66.3751 25.8257 66.3005C25.8443 66.1233 25.8537 65.9461 25.8537 65.7689C25.8537 65.5917 25.8583 65.4145 25.8677 65.2373C25.8677 65.0322 25.8677 64.8316 25.8677 64.6358C25.877 64.4306 25.8816 64.2254 25.8816 64.0202C25.8816 62.9011 25.8723 61.7819 25.8537 60.6628C25.8443 59.5436 25.8397 58.4245 25.8397 57.3053C25.8397 57.1747 25.7977 57.0908 25.7138 57.0535C25.6298 57.0162 25.5319 56.9975 25.42 56.9975C25.2988 56.9975 25.1728 57.0069 25.0423 57.0255C24.9117 57.0349 24.7811 57.0395 24.6506 57.0395C24.6133 57.0395 24.5713 57.0255 24.5247 56.9975C24.4874 56.9602 24.4687 56.9183 24.4687 56.8716C24.4687 56.8157 24.4967 56.7784 24.5526 56.7597C24.6086 56.7317 24.6552 56.7131 24.6925 56.7038C25.019 56.6385 25.3454 56.5825 25.6718 56.5359C26.0076 56.4893 26.334 56.424 26.6511 56.34C26.707 56.3214 26.763 56.3027 26.8189 56.2841C26.8842 56.2561 26.9448 56.2421 27.0008 56.2421C27.0661 56.2421 27.0941 56.2841 27.0847 56.368C27.0847 56.452 27.0847 56.5172 27.0847 56.5639V60.4669C27.3832 60.2151 27.7283 60.0053 28.12 59.8374C28.521 59.6695 28.9174 59.5856 29.3091 59.5856C29.9712 59.5856 30.5261 59.7488 30.9738 60.0752C31.4215 60.4016 31.7572 60.8307 31.981 61.3623C32.2049 61.8845 32.3168 62.4534 32.3168 63.069Z" fill="#393E46"/>
<path d="M41.4428 63.3068C41.4428 62.9058 41.4102 62.5047 41.3449 62.1037C41.2889 61.6933 41.177 61.3156 41.0092 60.9706C40.8506 60.6255 40.6174 60.3504 40.3097 60.1452C40.0019 59.9307 39.6009 59.8234 39.1066 59.8234C38.6403 59.8234 38.2579 59.9353 37.9595 60.1592C37.6703 60.383 37.4418 60.6721 37.274 61.0265C37.1154 61.3809 37.0035 61.7633 36.9382 62.1736C36.8823 62.584 36.8543 62.971 36.8543 63.3348C36.8543 63.7358 36.8823 64.1368 36.9382 64.5379C37.0035 64.9389 37.1201 65.3026 37.288 65.629C37.4558 65.9461 37.6937 66.2026 38.0014 66.3985C38.3185 66.5943 38.7242 66.6922 39.2185 66.6922C39.7035 66.6922 40.0905 66.5896 40.3796 66.3845C40.6781 66.1793 40.9019 65.9088 41.0511 65.5731C41.2097 65.2373 41.3123 64.8736 41.3589 64.4819C41.4148 64.0809 41.4428 63.6892 41.4428 63.3068ZM42.8837 63.3488C42.8837 64.0482 42.7159 64.6778 42.3801 65.2373C42.0537 65.7969 41.606 66.2399 41.0371 66.5663C40.4776 66.8927 39.848 67.056 39.1486 67.056C38.4677 67.056 37.8522 66.8927 37.302 66.5663C36.7517 66.2306 36.3134 65.7876 35.9869 65.2373C35.6605 64.6778 35.4973 64.0576 35.4973 63.3767C35.4973 62.6773 35.6559 62.0337 35.973 61.4462C36.29 60.8493 36.7237 60.369 37.274 60.0053C37.8335 59.6416 38.4771 59.4597 39.2045 59.4597C39.9879 59.4597 40.6548 59.6276 41.205 59.9633C41.7553 60.2897 42.1703 60.7467 42.4501 61.3343C42.7392 61.9125 42.8837 62.584 42.8837 63.3488Z" fill="#393E46"/>
<path d="M54.2728 66.6223C54.2728 66.7342 54.1889 66.8181 54.021 66.8741C53.8624 66.9301 53.6852 66.9674 53.4894 66.986C53.2935 67.0047 53.1536 67.014 53.0697 67.014C52.7526 67.014 52.5008 66.8881 52.3143 66.6363C52.1277 66.3845 51.9878 66.1233 51.8946 65.8529C51.5775 66.2539 51.1811 66.5523 50.7055 66.7482C50.2298 66.944 49.7355 67.042 49.2226 67.042C48.3832 67.042 47.8003 66.8275 47.4739 66.3985C47.1568 65.9601 46.9983 65.3446 46.9983 64.5518C46.9983 63.8524 46.9983 63.1529 46.9983 62.4534C47.0076 61.7446 47.0169 61.0405 47.0263 60.341C47.0263 60.0612 46.891 59.9213 46.6206 59.9213C46.546 59.9213 46.4713 59.926 46.3967 59.9353C46.3221 59.9447 46.2475 59.9493 46.1729 59.9493C46.1449 59.9493 46.1216 59.9353 46.103 59.9074C46.0936 59.87 46.089 59.8421 46.089 59.8234C46.089 59.7208 46.1356 59.6649 46.2289 59.6555C46.5553 59.6182 46.8817 59.5949 47.2081 59.5856C47.5439 59.5669 47.8749 59.539 48.2014 59.5017C48.276 59.5763 48.3133 59.6695 48.3133 59.7814C48.3133 60.0146 48.3086 60.2524 48.2993 60.4949C48.29 60.7374 48.2853 60.9799 48.2853 61.2224C48.276 61.7913 48.2667 62.3648 48.2573 62.9431C48.2573 63.512 48.2573 64.0855 48.2573 64.6638C48.2573 64.841 48.262 65.0322 48.2713 65.2373C48.2806 65.4332 48.3179 65.615 48.3832 65.7829C48.4858 66.0441 48.677 66.2306 48.9568 66.3425C49.2459 66.4451 49.521 66.4964 49.7822 66.4964C50.0713 66.4964 50.3604 66.4451 50.6495 66.3425C50.948 66.2306 51.1998 66.072 51.405 65.8669C51.6195 65.6524 51.7407 65.3866 51.7687 65.0695C51.7873 64.9109 51.7967 64.7524 51.7967 64.5938C51.806 64.4259 51.8106 64.2627 51.8106 64.1042L51.7967 60.2991C51.7967 60.1778 51.7547 60.0892 51.6708 60.0333C51.5961 59.9773 51.5075 59.9493 51.405 59.9493C51.3117 59.9493 51.2184 59.954 51.1252 59.9633C51.0412 59.9726 50.9526 59.9773 50.8594 59.9773C50.7754 59.9773 50.7335 59.9307 50.7335 59.8374C50.7335 59.7441 50.7754 59.6928 50.8594 59.6835C50.9713 59.6649 51.0879 59.6555 51.2091 59.6555C51.3303 59.6462 51.4516 59.6369 51.5728 59.6276L52.5381 59.5296C52.6034 59.5203 52.6687 59.511 52.734 59.5017C52.8086 59.4923 52.8785 59.4877 52.9438 59.4877C52.9904 59.4877 53.0231 59.5156 53.0417 59.5716C53.0604 59.6182 53.0697 59.6555 53.0697 59.6835C53.0417 61.7073 53.0277 63.7265 53.0277 65.741C53.0277 65.9741 53.079 66.1653 53.1816 66.3145C53.2935 66.4637 53.4754 66.5383 53.7272 66.5383C53.8018 66.5383 53.8671 66.529 53.9231 66.5104C53.9883 66.4917 54.0536 66.4824 54.1189 66.4824C54.2215 66.4824 54.2728 66.529 54.2728 66.6223Z" fill="#393E46"/>
<path d="M61.6023 66.3565C61.6023 66.4404 61.537 66.5244 61.4064 66.6083C61.2852 66.6922 61.136 66.7668 60.9588 66.8321C60.7816 66.8974 60.609 66.9487 60.4412 66.986C60.2826 67.0233 60.166 67.042 60.0914 67.042C59.6064 67.042 59.2287 66.9813 58.9583 66.8601C58.6971 66.7389 58.5106 66.5383 58.3987 66.2586C58.2961 65.9788 58.2448 65.6011 58.2448 65.1254C58.2448 64.3513 58.2448 63.5772 58.2448 62.8032C58.2541 62.0198 58.2635 61.241 58.2728 60.4669H57.2655C57.2003 60.4669 57.1443 60.4856 57.0977 60.5229C57.0604 60.5509 57.0184 60.5649 56.9718 60.5649C56.9251 60.5649 56.9018 60.5322 56.9018 60.4669C56.9018 60.4296 56.9251 60.355 56.9718 60.2431C57.0277 60.1312 57.065 60.0566 57.0837 60.0193C57.1117 60.0286 57.1536 60.0333 57.2096 60.0333H58.3008L58.3148 58.2566C58.5293 58.1167 58.7251 57.9628 58.9023 57.7949C59.0795 57.6177 59.2567 57.4405 59.4339 57.2633C59.4526 57.2447 59.4712 57.2307 59.4899 57.2214C59.5085 57.2027 59.5272 57.1934 59.5458 57.1934C59.6298 57.1934 59.6717 57.226 59.6717 57.2913L59.5878 60.0193C59.8862 60.0193 60.18 60.0146 60.4691 60.0053C60.7676 59.996 61.0613 59.9913 61.3505 59.9913C61.4717 59.9913 61.5323 60.0612 61.5323 60.2011C61.5323 60.3783 61.4531 60.4669 61.2945 60.4669H59.5878C59.5878 61.1757 59.5831 61.8892 59.5738 62.6073C59.5738 63.3161 59.5738 64.0296 59.5738 64.7477V65.8249C59.5738 66.058 59.6717 66.2213 59.8676 66.3145C60.0634 66.3985 60.2546 66.4404 60.4412 66.4404C60.7023 66.4404 60.9588 66.3985 61.2106 66.3145C61.2386 66.2959 61.2805 66.2772 61.3365 66.2586C61.3924 66.2399 61.4344 66.2306 61.4624 66.2306C61.5556 66.2306 61.6023 66.2726 61.6023 66.3565Z" fill="#393E46"/>
<path fill-rule="evenodd" clip-rule="evenodd" d="M21 27C21 33.7246 25.4251 39.4157 31.5222 41.3202H30.1626C29.1505 41.3202 28.3301 42.1407 28.3301 43.1528C28.3301 44.1648 29.1505 44.9853 30.1626 44.9853H41.1577C42.1697 44.9853 42.9902 44.1648 42.9902 43.1528C42.9902 42.1407 42.1697 41.3202 41.1577 41.3202H40.4778C46.575 39.4157 51 33.7246 51 27C51 18.7157 44.2843 12 36 12C27.7157 12 21 18.7157 21 27ZM50.5 27C50.5 34.229 45.2099 40.2225 38.2897 41.3202H33.7103C26.7902 40.2225 21.5 34.229 21.5 27C21.5 18.9919 27.9919 12.5 36 12.5C44.0081 12.5 50.5 18.9919 50.5 27Z" fill="#393E46"/>
<path d="M33.3997 47.4433C32.624 47.4433 31.9951 48.0721 31.9951 48.8479C31.9951 49.451 32.3801 49.9868 32.9518 50.1791L35.0664 50.8906C35.4859 51.0317 35.9405 51.0297 36.3588 50.8848L38.3766 50.1858C38.9444 49.9892 39.3252 49.4543 39.3252 48.8534C39.3252 48.0746 38.6938 47.4433 37.915 47.4433H33.3997Z" fill="#393E46"/>
<path d="M46 20.5C46 22.433 44.433 24 42.5 24C40.567 24 39 22.433 39 20.5C39 18.567 40.567 17 42.5 17C44.433 17 46 18.567 46 20.5Z" fill="#393E46"/>
</g>
<defs>
<filter id="filter0_dddddd_925_173" x="0.121166" y="0.7104" width="72.7707" height="77.6351" filterUnits="userSpaceOnUse" color-interpolation-filters="sRGB">
<feFlood flood-opacity="0" result="BackgroundImageFix"/>
<feColorMatrix in="SourceAlpha" type="matrix" values="0 0 0 0 0 0 0 0 0 0 0 0 0 0 0 0 0 0 127 0" result="hardAlpha"/>
<feOffset/>
<feGaussianBlur stdDeviation="0.1344"/>
<feColorMatrix type="matrix" values="0 0 0 0 0.223529 0 0 0 0 0.243137 0 0 0 0 0.27451 0 0 0 1 0"/>
<feBlend mode="normal" in2="BackgroundImageFix" result="effect1_dropShadow_925_173"/>
<feColorMatrix in="SourceAlpha" type="matrix" values="0 0 0 0 0 0 0 0 0 0 0 0 0 0 0 0 0 0 127 0" result="hardAlpha"/>
<feOffset/>
<feGaussianBlur stdDeviation="0.2688"/>
<feColorMatrix type="matrix" values="0 0 0 0 0.223529 0 0 0 0 0.243137 0 0 0 0 0.27451 0 0 0 1 0"/>
<feBlend mode="normal" in2="effect1_dropShadow_925_173" result="effect2_dropShadow_925_173"/>
<feColorMatrix in="SourceAlpha" type="matrix" values="0 0 0 0 0 0 0 0 0 0 0 0 0 0 0 0 0 0 127 0" result="hardAlpha"/>
<feOffset/>
<feGaussianBlur stdDeviation="0.9408"/>
<feColorMatrix type="matrix" values="0 0 0 0 0.223529 0 0 0 0 0.243137 0 0 0 0 0.27451 0 0 0 1 0"/>
<feBlend mode="normal" in2="effect2_dropShadow_925_173" result="effect3_dropShadow_925_173"/>
<feColorMatrix in="SourceAlpha" type="matrix" values="0 0 0 0 0 0 0 0 0 0 0 0 0 0 0 0 0 0 127 0" result="hardAlpha"/>
<feOffset/>
<feGaussianBlur stdDeviation="1.8816"/>
<feColorMatrix type="matrix" values="0 0 0 0 0.223529 0 0 0 0 0.243137 0 0 0 0 0.27451 0 0 0 1 0"/>
<feBlend mode="normal" in2="effect3_dropShadow_925_173" result="effect4_dropShadow_925_173"/>
<feColorMatrix in="SourceAlpha" type="matrix" values="0 0 0 0 0 0 0 0 0 0 0 0 0 0 0 0 0 0 127 0" result="hardAlpha"/>
<feOffset/>
<feGaussianBlur stdDeviation="3.2256"/>
<feColorMatrix type="matrix" values="0 0 0 0 0.223529 0 0 0 0 0.243137 0 0 0 0 0.27451 0 0 0 1 0"/>
<feBlend mode="normal" in2="effect4_dropShadow_925_173" result="effect5_dropShadow_925_173"/>
<feColorMatrix in="SourceAlpha" type="matrix" values="0 0 0 0 0 0 0 0 0 0 0 0 0 0 0 0 0 0 127 0" result="hardAlpha"/>
<feOffset/>
<feGaussianBlur stdDeviation="5.6448"/>
<feColorMatrix type="matrix" values="0 0 0 0 0.223529 0 0 0 0 0.243137 0 0 0 0 0.27451 0 0 0 1 0"/>
<feBlend mode="normal" in2="effect5_dropShadow_925_173" result="effect6_dropShadow_925_173"/>
<feBlend mode="normal" in="SourceGraphic" in2="effect6_dropShadow_925_173" result="shape"/>
</filter>
</defs>
</svg>
