<svg width="30" height="39" viewBox="0 0 30 39" fill="none" xmlns="http://www.w3.org/2000/svg">
<path fill-rule="evenodd" clip-rule="evenodd" d="M0 15C0 21.7246 4.42506 27.4157 10.5222 29.3202H9.16257C8.1505 29.3202 7.33005 30.1407 7.33005 31.1528C7.33005 32.1648 8.15049 32.9853 9.16256 32.9853H20.1576C21.1697 32.9853 21.9902 32.1648 21.9902 31.1528C21.9902 30.1407 21.1697 29.3202 20.1577 29.3202H19.4778C25.5749 27.4157 30 21.7246 30 15C30 6.71573 23.2843 0 15 0C6.71573 0 0 6.71573 0 15ZM29.5 15C29.5 22.229 24.2099 28.2225 17.2897 29.3202H12.7103C5.79013 28.2225 0.5 22.229 0.5 15C0.5 6.99187 6.99187 0.5 15 0.5C23.0081 0.5 29.5 6.99187 29.5 15Z" fill="#FFD369"/>
<path d="M12.3997 35.4433C11.6239 35.4433 10.9951 36.0721 10.9951 36.8479C10.9951 37.451 11.3801 37.9868 11.9518 38.1791L14.0664 38.8906C14.4859 39.0317 14.9405 39.0297 15.3587 38.8848L17.3766 38.1858C17.9444 37.9892 18.3251 37.4543 18.3251 36.8534C18.3251 36.0746 17.6938 35.4433 16.915 35.4433H12.3997Z" fill="#FFD369"/>
<path d="M25 8.5C25 10.433 23.433 12 21.5 12C19.567 12 18 10.433 18 8.5C18 6.567 19.567 5 21.5 5C23.433 5 25 6.567 25 8.5Z" fill="#FFD369"/>
</svg>
