<svg width="51" height="51" viewBox="0 0 51 51" fill="none" xmlns="http://www.w3.org/2000/svg">
<path fill-rule="evenodd" clip-rule="evenodd" d="M51 45.5357C51 46.9849 50.4243 48.3748 49.3995 49.3995C48.3747 50.4243 46.9847 51 45.5355 51L20.0343 51C18.585 51 17.195 50.4243 16.1702 49.3996C15.1454 48.3748 14.5697 46.9849 14.5697 45.5357L14.5697 38.4722C16.0479 37.2883 17.007 35.5754 17.2437 33.6964L30.0526 33.6964C32.2265 33.6964 34.3114 32.8329 35.8486 31.2958C37.3858 29.7586 38.2494 27.6738 38.2494 25.5C38.2494 23.3262 37.3858 21.2414 35.8486 19.7042C34.3114 18.1671 32.2265 17.3036 30.0526 17.3036L17.2437 17.3036C17.007 15.4246 16.0479 13.7117 14.5697 12.5278L14.5697 5.46428C14.5697 4.7467 14.7111 4.03615 14.9857 3.37319C15.2603 2.71023 15.6628 2.10786 16.1702 1.60045C16.6777 1.09305 17.2801 0.690547 17.9431 0.415938C18.6061 0.141334 19.3166 -4.85955e-06 20.0343 -4.92228e-06L45.5355 -7.15167e-06C46.2531 -7.2144e-06 46.9637 0.141331 47.6266 0.415936C48.2896 0.690544 48.892 1.09304 49.3995 1.60045C49.9069 2.10785 50.3094 2.71023 50.584 3.37319C50.8587 4.03614 51 4.7467 51 5.46428L51 45.5357ZM11.0615 35.3102C11.5608 35.1034 11.9876 34.7532 12.2878 34.3038C12.588 33.8545 12.7483 33.3261 12.7482 32.7857L12.7482 29.1429L30.0526 29.1429C31.0188 29.1429 31.9454 28.7591 32.6286 28.0759C33.3118 27.3927 33.6956 26.4661 33.6956 25.5C33.6956 24.5339 33.3118 23.6073 32.6286 22.9241C31.9454 22.2409 31.0188 21.8571 30.0526 21.8571L12.7482 21.8571L12.7482 18.2143C12.7477 17.6743 12.5872 17.1465 12.287 16.6976C11.9867 16.2488 11.5602 15.899 11.0612 15.6924C10.5622 15.4858 10.0132 15.4317 9.48355 15.5369C8.95385 15.6421 8.46722 15.902 8.08512 16.2836L0.799066 23.5693C0.287401 24.0816 5.33682e-06 24.776 5.40011e-06 25.5C5.46341e-06 26.224 0.287401 26.9184 0.799066 27.4307L8.08512 34.7164C8.46696 35.0985 8.95351 35.3589 9.48327 35.4646C10.013 35.5703 10.5622 35.5165 11.0615 35.3102Z" fill="#AF0000"/>
</svg>
