<svg width="48" height="56" viewBox="0 0 48 56" fill="none" xmlns="http://www.w3.org/2000/svg">
<mask id="path-1-inside-1_925_172" fill="white">
<path d="M11.8441 44.9137C11.8441 44.9789 11.8301 45.0302 11.8021 45.0675C11.7834 45.0955 11.7368 45.1095 11.6622 45.1095C11.5689 45.1095 11.4757 45.1095 11.3824 45.1095C11.2892 45.1002 11.1959 45.0955 11.1026 45.0955C11 45.0955 10.8835 45.1235 10.7529 45.1795C10.6223 45.2354 10.557 45.3287 10.557 45.4593V54.2866C10.557 54.4172 10.6223 54.5104 10.7529 54.5664C10.8835 54.6223 11 54.6503 11.1026 54.6503C11.2052 54.6503 11.3031 54.6457 11.3964 54.6363C11.499 54.627 11.5969 54.6223 11.6902 54.6223C11.7741 54.6223 11.8161 54.669 11.8161 54.7622C11.8161 54.7902 11.8161 54.8182 11.8161 54.8462C11.8161 54.8648 11.8161 54.8881 11.8161 54.9161C11.8161 54.9814 11.7834 55.014 11.7182 55.014C11.3917 55.014 11.0607 55.0047 10.7249 54.9861C10.3985 54.9674 10.0674 54.9581 9.73166 54.9581C9.54514 54.9581 9.35395 54.9628 9.1581 54.9721C8.97157 54.9814 8.78504 54.9907 8.59852 55.0001C8.47728 55.0094 8.35603 55.0187 8.23479 55.028C8.12288 55.0374 8.0063 55.042 7.88506 55.042C7.8291 55.042 7.80112 54.9954 7.80112 54.9021C7.80112 54.8648 7.80578 54.8135 7.81511 54.7482C7.82444 54.6736 7.85241 54.6363 7.89905 54.6363C8.00164 54.6363 8.10889 54.641 8.2208 54.6503C8.33272 54.6503 8.43997 54.6503 8.54256 54.6503C8.64515 54.6503 8.76639 54.6223 8.90629 54.5664C9.04618 54.5104 9.11613 54.4172 9.11613 54.2866V49.8519H3.47838V54.2866C3.47838 54.4172 3.54367 54.5104 3.67423 54.5664C3.8048 54.6223 3.92138 54.6503 4.02397 54.6503C4.12656 54.6503 4.22449 54.6457 4.31775 54.6363C4.42034 54.627 4.52293 54.6223 4.62552 54.6223C4.6908 54.6223 4.72811 54.6457 4.73743 54.6923C4.74676 54.7016 4.75142 54.7296 4.75142 54.7762C4.75142 54.8135 4.75142 54.8415 4.75142 54.8602C4.75142 54.8881 4.74209 54.9301 4.72344 54.9861C4.68614 55.0047 4.65816 55.014 4.63951 55.014C4.31309 55.014 3.98666 55.0047 3.66024 54.9861C3.34315 54.9674 3.02139 54.9581 2.69497 54.9581C2.49912 54.9581 2.30327 54.9628 2.10742 54.9721C1.92089 54.9814 1.73436 54.9907 1.54784 55.0001C1.4266 55.0094 1.31002 55.0187 1.1981 55.028C1.08619 55.0374 0.969608 55.042 0.848366 55.042C0.783082 55.042 0.759766 55.0187 0.778419 54.9721C0.759766 54.9161 0.75044 54.8835 0.75044 54.8741C0.75044 54.8368 0.755103 54.7902 0.764429 54.7343C0.773755 54.669 0.806397 54.6363 0.862355 54.6363C0.964944 54.6363 1.06753 54.641 1.17012 54.6503C1.28204 54.6503 1.38929 54.6503 1.49188 54.6503C1.6038 54.6503 1.72504 54.6223 1.85561 54.5664C1.9955 54.5104 2.06545 54.4172 2.06545 54.2866C2.06545 53.4845 2.06545 52.6825 2.06545 51.8804C2.07477 51.0783 2.07944 50.2809 2.07944 49.4882C2.07944 48.826 2.07477 48.1592 2.06545 47.4877C2.06545 46.8162 2.06545 46.1494 2.06545 45.4872C2.06545 45.3567 1.9955 45.2634 1.85561 45.2074C1.72504 45.1515 1.6038 45.1235 1.49188 45.1235C1.38929 45.1235 1.28204 45.1282 1.17012 45.1375C1.06753 45.1375 0.964944 45.1375 0.862355 45.1375C0.797071 45.1375 0.759766 45.1002 0.75044 45.0256C0.741113 44.951 0.73645 44.895 0.73645 44.8577C0.73645 44.7738 0.773755 44.7318 0.848366 44.7318C0.969608 44.7318 1.08619 44.7365 1.1981 44.7458C1.31002 44.7551 1.4266 44.7644 1.54784 44.7738C1.73436 44.7831 1.92089 44.7924 2.10742 44.8017C2.30327 44.8111 2.49912 44.8157 2.69497 44.8157C3.02139 44.8157 3.34781 44.8064 3.67423 44.7878C4.00998 44.7691 4.34106 44.7598 4.66748 44.7598C4.73277 44.7598 4.76541 44.7878 4.76541 44.8437C4.76541 44.8997 4.76541 44.951 4.76541 44.9976C4.76541 45.1002 4.71878 45.1515 4.62552 45.1515C4.52293 45.1515 4.42034 45.1468 4.31775 45.1375C4.22449 45.1282 4.12656 45.1235 4.02397 45.1235C3.92138 45.1235 3.8048 45.1515 3.67423 45.2074C3.54367 45.2634 3.47838 45.3567 3.47838 45.4872V49.3903H9.11613V45.5991C9.11613 45.4126 9.06483 45.2867 8.96224 45.2214C8.85965 45.1561 8.71976 45.1235 8.54256 45.1235C8.43997 45.1235 8.33272 45.1282 8.2208 45.1375C8.10889 45.1375 8.00164 45.1375 7.89905 45.1375C7.84309 45.1375 7.81045 45.1095 7.80112 45.0536C7.80112 44.9883 7.80112 44.937 7.80112 44.8997C7.80112 44.7878 7.83842 44.7318 7.91304 44.7318C8.13687 44.7318 8.36536 44.7411 8.59852 44.7598C8.841 44.7784 9.07882 44.7878 9.31198 44.7878H9.73166C10.0674 44.7878 10.3985 44.7784 10.7249 44.7598C11.0607 44.7411 11.3917 44.7318 11.7182 44.7318C11.7648 44.7318 11.7974 44.7505 11.8161 44.7878C11.8347 44.8251 11.8441 44.867 11.8441 44.9137Z"/>
<path d="M20.8101 51.3068C20.8101 50.9058 20.7775 50.5048 20.7122 50.1037C20.6562 49.6934 20.5443 49.3157 20.3764 48.9706C20.2179 48.6255 19.9847 48.3504 19.677 48.1452C19.3692 47.9307 18.9682 47.8235 18.4739 47.8235C18.0075 47.8235 17.6252 47.9354 17.3267 48.1592C17.0376 48.383 16.8091 48.6722 16.6412 49.0266C16.4827 49.381 16.3708 49.7633 16.3055 50.1737C16.2495 50.5841 16.2216 50.9711 16.2216 51.3348C16.2216 51.7359 16.2495 52.1369 16.3055 52.5379C16.3708 52.9389 16.4874 53.3027 16.6552 53.6291C16.8231 53.9462 17.0609 54.2027 17.3687 54.3985C17.6858 54.5944 18.0915 54.6923 18.5858 54.6923C19.0707 54.6923 19.4578 54.5897 19.7469 54.3845C20.0453 54.1793 20.2692 53.9089 20.4184 53.5731C20.5769 53.2374 20.6795 52.8737 20.7262 52.482C20.7821 52.0809 20.8101 51.6892 20.8101 51.3068ZM22.251 51.3488C22.251 52.0483 22.0831 52.6778 21.7474 53.2374C21.421 53.797 20.9733 54.24 20.4044 54.5664C19.8448 54.8928 19.2153 55.056 18.5158 55.056C17.835 55.056 17.2195 54.8928 16.6692 54.5664C16.119 54.2306 15.6806 53.7876 15.3542 53.2374C15.0278 52.6778 14.8646 52.0576 14.8646 51.3768C14.8646 50.6773 15.0231 50.0338 15.3402 49.4462C15.6573 48.8494 16.091 48.3691 16.6412 48.0053C17.2008 47.6416 17.8443 47.4597 18.5718 47.4597C19.3552 47.4597 20.022 47.6276 20.5723 47.9634C21.1225 48.2898 21.5376 48.7468 21.8173 49.3343C22.1065 49.9126 22.251 50.5841 22.251 51.3488Z"/>
<path d="M37.739 54.8182C37.739 54.9488 37.6877 55.014 37.5851 55.014C37.3239 55.014 37.0581 55.0047 36.7877 54.9861C36.5172 54.9674 36.2468 54.9581 35.9763 54.9581C35.7058 54.9581 35.4307 54.9674 35.1509 54.9861C34.8805 55.0047 34.61 55.014 34.3395 55.014C34.3022 55.014 34.2742 54.9907 34.2556 54.9441C34.2463 54.8975 34.2416 54.8602 34.2416 54.8322C34.2416 54.7482 34.2836 54.6969 34.3675 54.6783C34.4608 54.6596 34.5587 54.655 34.6613 54.6643C34.7732 54.6736 34.8571 54.6783 34.9131 54.6783C35.0437 54.6783 35.1509 54.6457 35.2349 54.5804C35.3188 54.5151 35.3608 54.4172 35.3608 54.2866C35.3608 53.6617 35.3654 53.0415 35.3748 52.426C35.3934 51.8105 35.4027 51.1949 35.4027 50.5794C35.4027 50.4768 35.4027 50.3742 35.4027 50.2716C35.4027 50.169 35.3981 50.0664 35.3887 49.9639C35.3794 49.74 35.3654 49.5115 35.3468 49.2784C35.3374 49.0359 35.3001 48.8121 35.2349 48.6069C35.1696 48.3924 35.0577 48.2198 34.8991 48.0893C34.7406 47.9587 34.5121 47.8934 34.2136 47.8934C33.9991 47.8934 33.7613 47.9587 33.5002 48.0893C33.2484 48.2105 33.0059 48.3551 32.7727 48.5229C32.5396 48.6908 32.3437 48.8494 32.1852 48.9986C32.2038 49.1291 32.2131 49.2644 32.2131 49.4043C32.2131 49.5348 32.2131 49.6654 32.2131 49.796C32.2131 50.0664 32.2131 50.3416 32.2131 50.6214C32.2225 50.8918 32.2271 51.1623 32.2271 51.4327C32.2271 51.9084 32.2225 52.384 32.2131 52.8597C32.2131 53.3353 32.2131 53.8109 32.2131 54.2866C32.2131 54.4265 32.2738 54.5244 32.395 54.5804C32.5162 54.6363 32.6375 54.6643 32.7587 54.6643C32.8333 54.6643 32.9079 54.6596 32.9826 54.6503C33.0665 54.641 33.1411 54.6363 33.2064 54.6363C33.253 54.6363 33.281 54.6596 33.2903 54.7063C33.309 54.7529 33.3183 54.7902 33.3183 54.8182C33.3183 54.8648 33.3043 54.9115 33.2763 54.9581C33.2484 54.9954 33.2064 55.014 33.1504 55.014C32.8893 55.014 32.6235 55.0047 32.353 54.9861C32.0919 54.9674 31.8261 54.9581 31.5556 54.9581C31.2945 54.9581 31.0287 54.9674 30.7582 54.9861C30.4878 55.0047 30.2173 55.014 29.9468 55.014C29.9095 55.014 29.8816 54.9907 29.8629 54.9441C29.8443 54.8975 29.8349 54.8602 29.8349 54.8322C29.8349 54.7576 29.8722 54.7063 29.9468 54.6783C30.0215 54.6596 30.1101 54.655 30.2126 54.6643C30.3246 54.6736 30.4178 54.6783 30.4924 54.6783C30.623 54.6783 30.7303 54.6503 30.8142 54.5944C30.9075 54.5291 30.9541 54.4265 30.9541 54.2866V50.7193C30.9541 50.5234 30.9494 50.2809 30.9401 49.9918C30.9401 49.7027 30.9214 49.4183 30.8841 49.1385C30.8562 48.8494 30.8049 48.6209 30.7303 48.453C30.665 48.2851 30.5531 48.1546 30.3945 48.0613C30.2453 47.968 30.0774 47.9214 29.8909 47.9214C29.6484 47.9214 29.4013 47.982 29.1495 48.1033C28.8976 48.2245 28.6598 48.3737 28.436 48.5509C28.2122 48.7281 28.021 48.9053 27.8624 49.0825V54.2726C27.8624 54.4125 27.9137 54.5151 28.0163 54.5804C28.1189 54.6363 28.2308 54.6643 28.3521 54.6643C28.4267 54.6643 28.5013 54.6596 28.5759 54.6503C28.6505 54.6317 28.7204 54.6223 28.7857 54.6223C28.823 54.6223 28.8463 54.6503 28.8557 54.7063C28.865 54.7529 28.8697 54.7856 28.8697 54.8042C28.8697 54.8508 28.8557 54.8975 28.8277 54.9441C28.809 54.9814 28.7717 55.0001 28.7158 55.0001C28.5386 55.0001 28.3614 54.9954 28.1842 54.9861C28.007 54.9674 27.8298 54.9581 27.6526 54.9581C27.2982 54.9581 26.9438 54.9674 26.5894 54.9861C26.235 54.9954 25.8806 55.0001 25.5262 55.0001C25.4889 55.0001 25.4609 54.9767 25.4422 54.9301C25.4236 54.8835 25.4143 54.8462 25.4143 54.8182C25.4143 54.7063 25.4609 54.6503 25.5542 54.6503C25.6568 54.6503 25.7547 54.655 25.8479 54.6643C25.9412 54.6643 26.0345 54.6643 26.1277 54.6643C26.2583 54.6643 26.3702 54.6363 26.4635 54.5804C26.5567 54.5151 26.6034 54.4125 26.6034 54.2726C26.6034 53.3306 26.5987 52.3887 26.5894 51.4467C26.5894 50.4955 26.5894 49.5488 26.5894 48.6069C26.5894 48.5043 26.5801 48.4017 26.5614 48.2991C26.5427 48.1965 26.4821 48.1266 26.3795 48.0893C26.3143 48.0613 26.2443 48.0473 26.1697 48.0473C26.0485 48.0473 25.9272 48.066 25.806 48.1033C25.6847 48.1312 25.5588 48.1452 25.4283 48.1452C25.3443 48.1452 25.3024 48.0893 25.3024 47.9774C25.3024 47.9027 25.3303 47.8561 25.3863 47.8375C25.4329 47.8188 25.4842 47.8095 25.5402 47.8095C25.6055 47.8002 25.6661 47.7908 25.722 47.7815C25.9365 47.7535 26.151 47.7209 26.3655 47.6836C26.5894 47.6369 26.8039 47.5903 27.0091 47.5437C27.0837 47.525 27.1629 47.5064 27.2469 47.4877C27.3308 47.4691 27.4148 47.4597 27.4987 47.4597C27.6106 47.4597 27.6852 47.5437 27.7225 47.7116C27.7692 47.8701 27.7925 48.0426 27.7925 48.2292C27.8018 48.4157 27.8065 48.5509 27.8065 48.6349C28.0023 48.467 28.2215 48.2944 28.464 48.1172C28.7065 47.9307 28.9629 47.7722 29.2334 47.6416C29.5038 47.511 29.7743 47.4458 30.0448 47.4458C30.5204 47.4458 30.9214 47.525 31.2479 47.6836C31.5743 47.8421 31.8541 48.1406 32.0872 48.5789C32.2924 48.4017 32.5256 48.2245 32.7867 48.0473C33.0478 47.8608 33.3183 47.7069 33.5981 47.5856C33.8872 47.4551 34.1717 47.3898 34.4515 47.3898C35.067 47.3898 35.5333 47.4784 35.8504 47.6556C36.1768 47.8328 36.396 48.1079 36.5079 48.481C36.6291 48.8447 36.6898 49.3157 36.6898 49.8939C36.6898 50.6214 36.6851 51.3535 36.6758 52.0902C36.6664 52.8177 36.6618 53.5498 36.6618 54.2866C36.6618 54.4265 36.7224 54.5244 36.8436 54.5804C36.9742 54.6363 37.1001 54.6643 37.2214 54.6643C37.296 54.6643 37.3659 54.6596 37.4312 54.6503C37.5058 54.641 37.5758 54.6363 37.641 54.6363C37.6783 54.6363 37.7017 54.6596 37.711 54.7063C37.7296 54.7529 37.739 54.7902 37.739 54.8182Z"/>
<path d="M45.6699 50.0898C45.6606 49.7074 45.6279 49.3437 45.572 48.9986C45.516 48.6442 45.3808 48.3551 45.1663 48.1312C44.9518 47.8981 44.602 47.7815 44.1171 47.7815C43.6787 47.7815 43.3197 47.9027 43.0399 48.1452C42.7694 48.3784 42.5596 48.6768 42.4103 49.0406C42.2611 49.3949 42.1492 49.7587 42.0746 50.1317C42.3078 50.1411 42.5363 50.1504 42.7601 50.1597C42.9839 50.1597 43.2077 50.1597 43.4316 50.1597C43.8046 50.1597 44.1777 50.155 44.5507 50.1457C44.9238 50.1271 45.2968 50.1084 45.6699 50.0898ZM47.2787 53.2933C47.2787 53.34 47.2694 53.368 47.2507 53.3773C47.2227 53.4705 47.1528 53.5825 47.0409 53.713C46.9383 53.8436 46.8217 53.9695 46.6911 54.0907C46.5606 54.2027 46.4533 54.2866 46.3694 54.3425C46.0616 54.5571 45.7119 54.7296 45.3202 54.8602C44.9378 54.9907 44.5554 55.056 44.173 55.056C43.8559 55.056 43.5015 55.0047 43.1098 54.9021C42.7274 54.7995 42.401 54.6596 42.1306 54.4824C41.6083 54.1374 41.2259 53.685 40.9834 53.1255C40.7409 52.5659 40.6197 51.983 40.6197 51.3768C40.6197 50.6866 40.7549 50.0478 41.0254 49.4602C41.2959 48.8727 41.7295 48.397 42.3264 48.0333C42.5969 47.8748 42.9 47.7442 43.2357 47.6416C43.5715 47.5297 43.8932 47.4737 44.201 47.4737C44.7512 47.4737 45.2362 47.5856 45.6559 47.8095C46.0756 48.0333 46.402 48.3504 46.6352 48.7608C46.8776 49.1618 46.9989 49.6421 46.9989 50.2017C46.9989 50.3602 46.9616 50.4628 46.887 50.5094C46.8217 50.5561 46.7191 50.5794 46.5792 50.5794C46.3927 50.5794 46.2062 50.5747 46.0196 50.5654C45.8331 50.5561 45.6466 50.5467 45.46 50.5374C45.1989 50.5188 44.9378 50.5094 44.6766 50.5094C44.4248 50.5094 44.1684 50.5094 43.9072 50.5094C43.5901 50.5094 43.273 50.5094 42.9559 50.5094C42.6388 50.5094 42.3217 50.5188 42.0047 50.5374C41.9953 50.6866 41.986 50.8312 41.9767 50.9711C41.9674 51.111 41.9627 51.2555 41.9627 51.4048C41.9627 51.7498 42.0047 52.1089 42.0886 52.482C42.1725 52.8457 42.3078 53.1861 42.4943 53.5032C42.6808 53.8109 42.9186 54.0628 43.2077 54.2586C43.4969 54.4451 43.8466 54.5384 44.257 54.5384C44.6766 54.5384 45.0777 54.4731 45.46 54.3425C45.8424 54.212 46.1922 54.0021 46.5093 53.713C46.5932 53.6291 46.6678 53.5405 46.7331 53.4472C46.8077 53.3446 46.887 53.256 46.9709 53.1814C47.0175 53.1348 47.0688 53.1115 47.1248 53.1115C47.1714 53.1115 47.2087 53.1301 47.2367 53.1674C47.2647 53.2047 47.2787 53.2467 47.2787 53.2933Z"/>
<path d="M40 32.0001V11.5352C40 11.2009 39.8329 10.8887 39.5547 10.7032L24.0547 0.369854C23.7188 0.145921 23.2812 0.145921 22.9453 0.369854L7.44532 10.7032C7.16712 10.8887 7.00002 11.2009 7.00002 11.5352V32.0001C7.00002 32.5523 7.44774 33.0001 8.00002 33.0001H18.375C18.9273 33.0001 19.375 32.5523 19.375 32.0001V20.2501C19.375 19.6978 19.8227 19.2501 20.375 19.2501H26.625C27.1773 19.2501 27.625 19.6978 27.625 20.2501V32.0001C27.625 32.5523 28.0727 33.0001 28.625 33.0001H39C39.5523 33.0001 40 32.5523 40 32.0001Z"/>
</mask>
<path d="M11.8441 44.9137C11.8441 44.9789 11.8301 45.0302 11.8021 45.0675C11.7834 45.0955 11.7368 45.1095 11.6622 45.1095C11.5689 45.1095 11.4757 45.1095 11.3824 45.1095C11.2892 45.1002 11.1959 45.0955 11.1026 45.0955C11 45.0955 10.8835 45.1235 10.7529 45.1795C10.6223 45.2354 10.557 45.3287 10.557 45.4593V54.2866C10.557 54.4172 10.6223 54.5104 10.7529 54.5664C10.8835 54.6223 11 54.6503 11.1026 54.6503C11.2052 54.6503 11.3031 54.6457 11.3964 54.6363C11.499 54.627 11.5969 54.6223 11.6902 54.6223C11.7741 54.6223 11.8161 54.669 11.8161 54.7622C11.8161 54.7902 11.8161 54.8182 11.8161 54.8462C11.8161 54.8648 11.8161 54.8881 11.8161 54.9161C11.8161 54.9814 11.7834 55.014 11.7182 55.014C11.3917 55.014 11.0607 55.0047 10.7249 54.9861C10.3985 54.9674 10.0674 54.9581 9.73166 54.9581C9.54514 54.9581 9.35395 54.9628 9.1581 54.9721C8.97157 54.9814 8.78504 54.9907 8.59852 55.0001C8.47728 55.0094 8.35603 55.0187 8.23479 55.028C8.12288 55.0374 8.0063 55.042 7.88506 55.042C7.8291 55.042 7.80112 54.9954 7.80112 54.9021C7.80112 54.8648 7.80578 54.8135 7.81511 54.7482C7.82444 54.6736 7.85241 54.6363 7.89905 54.6363C8.00164 54.6363 8.10889 54.641 8.2208 54.6503C8.33272 54.6503 8.43997 54.6503 8.54256 54.6503C8.64515 54.6503 8.76639 54.6223 8.90629 54.5664C9.04618 54.5104 9.11613 54.4172 9.11613 54.2866V49.8519H3.47838V54.2866C3.47838 54.4172 3.54367 54.5104 3.67423 54.5664C3.8048 54.6223 3.92138 54.6503 4.02397 54.6503C4.12656 54.6503 4.22449 54.6457 4.31775 54.6363C4.42034 54.627 4.52293 54.6223 4.62552 54.6223C4.6908 54.6223 4.72811 54.6457 4.73743 54.6923C4.74676 54.7016 4.75142 54.7296 4.75142 54.7762C4.75142 54.8135 4.75142 54.8415 4.75142 54.8602C4.75142 54.8881 4.74209 54.9301 4.72344 54.9861C4.68614 55.0047 4.65816 55.014 4.63951 55.014C4.31309 55.014 3.98666 55.0047 3.66024 54.9861C3.34315 54.9674 3.02139 54.9581 2.69497 54.9581C2.49912 54.9581 2.30327 54.9628 2.10742 54.9721C1.92089 54.9814 1.73436 54.9907 1.54784 55.0001C1.4266 55.0094 1.31002 55.0187 1.1981 55.028C1.08619 55.0374 0.969608 55.042 0.848366 55.042C0.783082 55.042 0.759766 55.0187 0.778419 54.9721C0.759766 54.9161 0.75044 54.8835 0.75044 54.8741C0.75044 54.8368 0.755103 54.7902 0.764429 54.7343C0.773755 54.669 0.806397 54.6363 0.862355 54.6363C0.964944 54.6363 1.06753 54.641 1.17012 54.6503C1.28204 54.6503 1.38929 54.6503 1.49188 54.6503C1.6038 54.6503 1.72504 54.6223 1.85561 54.5664C1.9955 54.5104 2.06545 54.4172 2.06545 54.2866C2.06545 53.4845 2.06545 52.6825 2.06545 51.8804C2.07477 51.0783 2.07944 50.2809 2.07944 49.4882C2.07944 48.826 2.07477 48.1592 2.06545 47.4877C2.06545 46.8162 2.06545 46.1494 2.06545 45.4872C2.06545 45.3567 1.9955 45.2634 1.85561 45.2074C1.72504 45.1515 1.6038 45.1235 1.49188 45.1235C1.38929 45.1235 1.28204 45.1282 1.17012 45.1375C1.06753 45.1375 0.964944 45.1375 0.862355 45.1375C0.797071 45.1375 0.759766 45.1002 0.75044 45.0256C0.741113 44.951 0.73645 44.895 0.73645 44.8577C0.73645 44.7738 0.773755 44.7318 0.848366 44.7318C0.969608 44.7318 1.08619 44.7365 1.1981 44.7458C1.31002 44.7551 1.4266 44.7644 1.54784 44.7738C1.73436 44.7831 1.92089 44.7924 2.10742 44.8017C2.30327 44.8111 2.49912 44.8157 2.69497 44.8157C3.02139 44.8157 3.34781 44.8064 3.67423 44.7878C4.00998 44.7691 4.34106 44.7598 4.66748 44.7598C4.73277 44.7598 4.76541 44.7878 4.76541 44.8437C4.76541 44.8997 4.76541 44.951 4.76541 44.9976C4.76541 45.1002 4.71878 45.1515 4.62552 45.1515C4.52293 45.1515 4.42034 45.1468 4.31775 45.1375C4.22449 45.1282 4.12656 45.1235 4.02397 45.1235C3.92138 45.1235 3.8048 45.1515 3.67423 45.2074C3.54367 45.2634 3.47838 45.3567 3.47838 45.4872V49.3903H9.11613V45.5991C9.11613 45.4126 9.06483 45.2867 8.96224 45.2214C8.85965 45.1561 8.71976 45.1235 8.54256 45.1235C8.43997 45.1235 8.33272 45.1282 8.2208 45.1375C8.10889 45.1375 8.00164 45.1375 7.89905 45.1375C7.84309 45.1375 7.81045 45.1095 7.80112 45.0536C7.80112 44.9883 7.80112 44.937 7.80112 44.8997C7.80112 44.7878 7.83842 44.7318 7.91304 44.7318C8.13687 44.7318 8.36536 44.7411 8.59852 44.7598C8.841 44.7784 9.07882 44.7878 9.31198 44.7878H9.73166C10.0674 44.7878 10.3985 44.7784 10.7249 44.7598C11.0607 44.7411 11.3917 44.7318 11.7182 44.7318C11.7648 44.7318 11.7974 44.7505 11.8161 44.7878C11.8347 44.8251 11.8441 44.867 11.8441 44.9137Z" fill="#393E46"/>
<path d="M20.8101 51.3068C20.8101 50.9058 20.7775 50.5048 20.7122 50.1037C20.6562 49.6934 20.5443 49.3157 20.3764 48.9706C20.2179 48.6255 19.9847 48.3504 19.677 48.1452C19.3692 47.9307 18.9682 47.8235 18.4739 47.8235C18.0075 47.8235 17.6252 47.9354 17.3267 48.1592C17.0376 48.383 16.8091 48.6722 16.6412 49.0266C16.4827 49.381 16.3708 49.7633 16.3055 50.1737C16.2495 50.5841 16.2216 50.9711 16.2216 51.3348C16.2216 51.7359 16.2495 52.1369 16.3055 52.5379C16.3708 52.9389 16.4874 53.3027 16.6552 53.6291C16.8231 53.9462 17.0609 54.2027 17.3687 54.3985C17.6858 54.5944 18.0915 54.6923 18.5858 54.6923C19.0707 54.6923 19.4578 54.5897 19.7469 54.3845C20.0453 54.1793 20.2692 53.9089 20.4184 53.5731C20.5769 53.2374 20.6795 52.8737 20.7262 52.482C20.7821 52.0809 20.8101 51.6892 20.8101 51.3068ZM22.251 51.3488C22.251 52.0483 22.0831 52.6778 21.7474 53.2374C21.421 53.797 20.9733 54.24 20.4044 54.5664C19.8448 54.8928 19.2153 55.056 18.5158 55.056C17.835 55.056 17.2195 54.8928 16.6692 54.5664C16.119 54.2306 15.6806 53.7876 15.3542 53.2374C15.0278 52.6778 14.8646 52.0576 14.8646 51.3768C14.8646 50.6773 15.0231 50.0338 15.3402 49.4462C15.6573 48.8494 16.091 48.3691 16.6412 48.0053C17.2008 47.6416 17.8443 47.4597 18.5718 47.4597C19.3552 47.4597 20.022 47.6276 20.5723 47.9634C21.1225 48.2898 21.5376 48.7468 21.8173 49.3343C22.1065 49.9126 22.251 50.5841 22.251 51.3488Z" fill="#393E46"/>
<path d="M37.739 54.8182C37.739 54.9488 37.6877 55.014 37.5851 55.014C37.3239 55.014 37.0581 55.0047 36.7877 54.9861C36.5172 54.9674 36.2468 54.9581 35.9763 54.9581C35.7058 54.9581 35.4307 54.9674 35.1509 54.9861C34.8805 55.0047 34.61 55.014 34.3395 55.014C34.3022 55.014 34.2742 54.9907 34.2556 54.9441C34.2463 54.8975 34.2416 54.8602 34.2416 54.8322C34.2416 54.7482 34.2836 54.6969 34.3675 54.6783C34.4608 54.6596 34.5587 54.655 34.6613 54.6643C34.7732 54.6736 34.8571 54.6783 34.9131 54.6783C35.0437 54.6783 35.1509 54.6457 35.2349 54.5804C35.3188 54.5151 35.3608 54.4172 35.3608 54.2866C35.3608 53.6617 35.3654 53.0415 35.3748 52.426C35.3934 51.8105 35.4027 51.1949 35.4027 50.5794C35.4027 50.4768 35.4027 50.3742 35.4027 50.2716C35.4027 50.169 35.3981 50.0664 35.3887 49.9639C35.3794 49.74 35.3654 49.5115 35.3468 49.2784C35.3374 49.0359 35.3001 48.8121 35.2349 48.6069C35.1696 48.3924 35.0577 48.2198 34.8991 48.0893C34.7406 47.9587 34.5121 47.8934 34.2136 47.8934C33.9991 47.8934 33.7613 47.9587 33.5002 48.0893C33.2484 48.2105 33.0059 48.3551 32.7727 48.5229C32.5396 48.6908 32.3437 48.8494 32.1852 48.9986C32.2038 49.1291 32.2131 49.2644 32.2131 49.4043C32.2131 49.5348 32.2131 49.6654 32.2131 49.796C32.2131 50.0664 32.2131 50.3416 32.2131 50.6214C32.2225 50.8918 32.2271 51.1623 32.2271 51.4327C32.2271 51.9084 32.2225 52.384 32.2131 52.8597C32.2131 53.3353 32.2131 53.8109 32.2131 54.2866C32.2131 54.4265 32.2738 54.5244 32.395 54.5804C32.5162 54.6363 32.6375 54.6643 32.7587 54.6643C32.8333 54.6643 32.9079 54.6596 32.9826 54.6503C33.0665 54.641 33.1411 54.6363 33.2064 54.6363C33.253 54.6363 33.281 54.6596 33.2903 54.7063C33.309 54.7529 33.3183 54.7902 33.3183 54.8182C33.3183 54.8648 33.3043 54.9115 33.2763 54.9581C33.2484 54.9954 33.2064 55.014 33.1504 55.014C32.8893 55.014 32.6235 55.0047 32.353 54.9861C32.0919 54.9674 31.8261 54.9581 31.5556 54.9581C31.2945 54.9581 31.0287 54.9674 30.7582 54.9861C30.4878 55.0047 30.2173 55.014 29.9468 55.014C29.9095 55.014 29.8816 54.9907 29.8629 54.9441C29.8443 54.8975 29.8349 54.8602 29.8349 54.8322C29.8349 54.7576 29.8722 54.7063 29.9468 54.6783C30.0215 54.6596 30.1101 54.655 30.2126 54.6643C30.3246 54.6736 30.4178 54.6783 30.4924 54.6783C30.623 54.6783 30.7303 54.6503 30.8142 54.5944C30.9075 54.5291 30.9541 54.4265 30.9541 54.2866V50.7193C30.9541 50.5234 30.9494 50.2809 30.9401 49.9918C30.9401 49.7027 30.9214 49.4183 30.8841 49.1385C30.8562 48.8494 30.8049 48.6209 30.7303 48.453C30.665 48.2851 30.5531 48.1546 30.3945 48.0613C30.2453 47.968 30.0774 47.9214 29.8909 47.9214C29.6484 47.9214 29.4013 47.982 29.1495 48.1033C28.8976 48.2245 28.6598 48.3737 28.436 48.5509C28.2122 48.7281 28.021 48.9053 27.8624 49.0825V54.2726C27.8624 54.4125 27.9137 54.5151 28.0163 54.5804C28.1189 54.6363 28.2308 54.6643 28.3521 54.6643C28.4267 54.6643 28.5013 54.6596 28.5759 54.6503C28.6505 54.6317 28.7204 54.6223 28.7857 54.6223C28.823 54.6223 28.8463 54.6503 28.8557 54.7063C28.865 54.7529 28.8697 54.7856 28.8697 54.8042C28.8697 54.8508 28.8557 54.8975 28.8277 54.9441C28.809 54.9814 28.7717 55.0001 28.7158 55.0001C28.5386 55.0001 28.3614 54.9954 28.1842 54.9861C28.007 54.9674 27.8298 54.9581 27.6526 54.9581C27.2982 54.9581 26.9438 54.9674 26.5894 54.9861C26.235 54.9954 25.8806 55.0001 25.5262 55.0001C25.4889 55.0001 25.4609 54.9767 25.4422 54.9301C25.4236 54.8835 25.4143 54.8462 25.4143 54.8182C25.4143 54.7063 25.4609 54.6503 25.5542 54.6503C25.6568 54.6503 25.7547 54.655 25.8479 54.6643C25.9412 54.6643 26.0345 54.6643 26.1277 54.6643C26.2583 54.6643 26.3702 54.6363 26.4635 54.5804C26.5567 54.5151 26.6034 54.4125 26.6034 54.2726C26.6034 53.3306 26.5987 52.3887 26.5894 51.4467C26.5894 50.4955 26.5894 49.5488 26.5894 48.6069C26.5894 48.5043 26.5801 48.4017 26.5614 48.2991C26.5427 48.1965 26.4821 48.1266 26.3795 48.0893C26.3143 48.0613 26.2443 48.0473 26.1697 48.0473C26.0485 48.0473 25.9272 48.066 25.806 48.1033C25.6847 48.1312 25.5588 48.1452 25.4283 48.1452C25.3443 48.1452 25.3024 48.0893 25.3024 47.9774C25.3024 47.9027 25.3303 47.8561 25.3863 47.8375C25.4329 47.8188 25.4842 47.8095 25.5402 47.8095C25.6055 47.8002 25.6661 47.7908 25.722 47.7815C25.9365 47.7535 26.151 47.7209 26.3655 47.6836C26.5894 47.6369 26.8039 47.5903 27.0091 47.5437C27.0837 47.525 27.1629 47.5064 27.2469 47.4877C27.3308 47.4691 27.4148 47.4597 27.4987 47.4597C27.6106 47.4597 27.6852 47.5437 27.7225 47.7116C27.7692 47.8701 27.7925 48.0426 27.7925 48.2292C27.8018 48.4157 27.8065 48.5509 27.8065 48.6349C28.0023 48.467 28.2215 48.2944 28.464 48.1172C28.7065 47.9307 28.9629 47.7722 29.2334 47.6416C29.5038 47.511 29.7743 47.4458 30.0448 47.4458C30.5204 47.4458 30.9214 47.525 31.2479 47.6836C31.5743 47.8421 31.8541 48.1406 32.0872 48.5789C32.2924 48.4017 32.5256 48.2245 32.7867 48.0473C33.0478 47.8608 33.3183 47.7069 33.5981 47.5856C33.8872 47.4551 34.1717 47.3898 34.4515 47.3898C35.067 47.3898 35.5333 47.4784 35.8504 47.6556C36.1768 47.8328 36.396 48.1079 36.5079 48.481C36.6291 48.8447 36.6898 49.3157 36.6898 49.8939C36.6898 50.6214 36.6851 51.3535 36.6758 52.0902C36.6664 52.8177 36.6618 53.5498 36.6618 54.2866C36.6618 54.4265 36.7224 54.5244 36.8436 54.5804C36.9742 54.6363 37.1001 54.6643 37.2214 54.6643C37.296 54.6643 37.3659 54.6596 37.4312 54.6503C37.5058 54.641 37.5758 54.6363 37.641 54.6363C37.6783 54.6363 37.7017 54.6596 37.711 54.7063C37.7296 54.7529 37.739 54.7902 37.739 54.8182Z" fill="#393E46"/>
<path d="M45.6699 50.0898C45.6606 49.7074 45.6279 49.3437 45.572 48.9986C45.516 48.6442 45.3808 48.3551 45.1663 48.1312C44.9518 47.8981 44.602 47.7815 44.1171 47.7815C43.6787 47.7815 43.3197 47.9027 43.0399 48.1452C42.7694 48.3784 42.5596 48.6768 42.4103 49.0406C42.2611 49.3949 42.1492 49.7587 42.0746 50.1317C42.3078 50.1411 42.5363 50.1504 42.7601 50.1597C42.9839 50.1597 43.2077 50.1597 43.4316 50.1597C43.8046 50.1597 44.1777 50.155 44.5507 50.1457C44.9238 50.1271 45.2968 50.1084 45.6699 50.0898ZM47.2787 53.2933C47.2787 53.34 47.2694 53.368 47.2507 53.3773C47.2227 53.4705 47.1528 53.5825 47.0409 53.713C46.9383 53.8436 46.8217 53.9695 46.6911 54.0907C46.5606 54.2027 46.4533 54.2866 46.3694 54.3425C46.0616 54.5571 45.7119 54.7296 45.3202 54.8602C44.9378 54.9907 44.5554 55.056 44.173 55.056C43.8559 55.056 43.5015 55.0047 43.1098 54.9021C42.7274 54.7995 42.401 54.6596 42.1306 54.4824C41.6083 54.1374 41.2259 53.685 40.9834 53.1255C40.7409 52.5659 40.6197 51.983 40.6197 51.3768C40.6197 50.6866 40.7549 50.0478 41.0254 49.4602C41.2959 48.8727 41.7295 48.397 42.3264 48.0333C42.5969 47.8748 42.9 47.7442 43.2357 47.6416C43.5715 47.5297 43.8932 47.4737 44.201 47.4737C44.7512 47.4737 45.2362 47.5856 45.6559 47.8095C46.0756 48.0333 46.402 48.3504 46.6352 48.7608C46.8776 49.1618 46.9989 49.6421 46.9989 50.2017C46.9989 50.3602 46.9616 50.4628 46.887 50.5094C46.8217 50.5561 46.7191 50.5794 46.5792 50.5794C46.3927 50.5794 46.2062 50.5747 46.0196 50.5654C45.8331 50.5561 45.6466 50.5467 45.46 50.5374C45.1989 50.5188 44.9378 50.5094 44.6766 50.5094C44.4248 50.5094 44.1684 50.5094 43.9072 50.5094C43.5901 50.5094 43.273 50.5094 42.9559 50.5094C42.6388 50.5094 42.3217 50.5188 42.0047 50.5374C41.9953 50.6866 41.986 50.8312 41.9767 50.9711C41.9674 51.111 41.9627 51.2555 41.9627 51.4048C41.9627 51.7498 42.0047 52.1089 42.0886 52.482C42.1725 52.8457 42.3078 53.1861 42.4943 53.5032C42.6808 53.8109 42.9186 54.0628 43.2077 54.2586C43.4969 54.4451 43.8466 54.5384 44.257 54.5384C44.6766 54.5384 45.0777 54.4731 45.46 54.3425C45.8424 54.212 46.1922 54.0021 46.5093 53.713C46.5932 53.6291 46.6678 53.5405 46.7331 53.4472C46.8077 53.3446 46.887 53.256 46.9709 53.1814C47.0175 53.1348 47.0688 53.1115 47.1248 53.1115C47.1714 53.1115 47.2087 53.1301 47.2367 53.1674C47.2647 53.2047 47.2787 53.2467 47.2787 53.2933Z" fill="#393E46"/>
<path d="M40 32.0001V11.5352C40 11.2009 39.8329 10.8887 39.5547 10.7032L24.0547 0.369854C23.7188 0.145921 23.2812 0.145921 22.9453 0.369854L7.44532 10.7032C7.16712 10.8887 7.00002 11.2009 7.00002 11.5352V32.0001C7.00002 32.5523 7.44774 33.0001 8.00002 33.0001H18.375C18.9273 33.0001 19.375 32.5523 19.375 32.0001V20.2501C19.375 19.6978 19.8227 19.2501 20.375 19.2501H26.625C27.1773 19.2501 27.625 19.6978 27.625 20.2501V32.0001C27.625 32.5523 28.0727 33.0001 28.625 33.0001H39C39.5523 33.0001 40 32.5523 40 32.0001Z" fill="#EEEEEE"/>
<path d="M11.8441 44.9137C11.8441 44.9789 11.8301 45.0302 11.8021 45.0675C11.7834 45.0955 11.7368 45.1095 11.6622 45.1095C11.5689 45.1095 11.4757 45.1095 11.3824 45.1095C11.2892 45.1002 11.1959 45.0955 11.1026 45.0955C11 45.0955 10.8835 45.1235 10.7529 45.1795C10.6223 45.2354 10.557 45.3287 10.557 45.4593V54.2866C10.557 54.4172 10.6223 54.5104 10.7529 54.5664C10.8835 54.6223 11 54.6503 11.1026 54.6503C11.2052 54.6503 11.3031 54.6457 11.3964 54.6363C11.499 54.627 11.5969 54.6223 11.6902 54.6223C11.7741 54.6223 11.8161 54.669 11.8161 54.7622C11.8161 54.7902 11.8161 54.8182 11.8161 54.8462C11.8161 54.8648 11.8161 54.8881 11.8161 54.9161C11.8161 54.9814 11.7834 55.014 11.7182 55.014C11.3917 55.014 11.0607 55.0047 10.7249 54.9861C10.3985 54.9674 10.0674 54.9581 9.73166 54.9581C9.54514 54.9581 9.35395 54.9628 9.1581 54.9721C8.97157 54.9814 8.78504 54.9907 8.59852 55.0001C8.47728 55.0094 8.35603 55.0187 8.23479 55.028C8.12288 55.0374 8.0063 55.042 7.88506 55.042C7.8291 55.042 7.80112 54.9954 7.80112 54.9021C7.80112 54.8648 7.80578 54.8135 7.81511 54.7482C7.82444 54.6736 7.85241 54.6363 7.89905 54.6363C8.00164 54.6363 8.10889 54.641 8.2208 54.6503C8.33272 54.6503 8.43997 54.6503 8.54256 54.6503C8.64515 54.6503 8.76639 54.6223 8.90629 54.5664C9.04618 54.5104 9.11613 54.4172 9.11613 54.2866V49.8519H3.47838V54.2866C3.47838 54.4172 3.54367 54.5104 3.67423 54.5664C3.8048 54.6223 3.92138 54.6503 4.02397 54.6503C4.12656 54.6503 4.22449 54.6457 4.31775 54.6363C4.42034 54.627 4.52293 54.6223 4.62552 54.6223C4.6908 54.6223 4.72811 54.6457 4.73743 54.6923C4.74676 54.7016 4.75142 54.7296 4.75142 54.7762C4.75142 54.8135 4.75142 54.8415 4.75142 54.8602C4.75142 54.8881 4.74209 54.9301 4.72344 54.9861C4.68614 55.0047 4.65816 55.014 4.63951 55.014C4.31309 55.014 3.98666 55.0047 3.66024 54.9861C3.34315 54.9674 3.02139 54.9581 2.69497 54.9581C2.49912 54.9581 2.30327 54.9628 2.10742 54.9721C1.92089 54.9814 1.73436 54.9907 1.54784 55.0001C1.4266 55.0094 1.31002 55.0187 1.1981 55.028C1.08619 55.0374 0.969608 55.042 0.848366 55.042C0.783082 55.042 0.759766 55.0187 0.778419 54.9721C0.759766 54.9161 0.75044 54.8835 0.75044 54.8741C0.75044 54.8368 0.755103 54.7902 0.764429 54.7343C0.773755 54.669 0.806397 54.6363 0.862355 54.6363C0.964944 54.6363 1.06753 54.641 1.17012 54.6503C1.28204 54.6503 1.38929 54.6503 1.49188 54.6503C1.6038 54.6503 1.72504 54.6223 1.85561 54.5664C1.9955 54.5104 2.06545 54.4172 2.06545 54.2866C2.06545 53.4845 2.06545 52.6825 2.06545 51.8804C2.07477 51.0783 2.07944 50.2809 2.07944 49.4882C2.07944 48.826 2.07477 48.1592 2.06545 47.4877C2.06545 46.8162 2.06545 46.1494 2.06545 45.4872C2.06545 45.3567 1.9955 45.2634 1.85561 45.2074C1.72504 45.1515 1.6038 45.1235 1.49188 45.1235C1.38929 45.1235 1.28204 45.1282 1.17012 45.1375C1.06753 45.1375 0.964944 45.1375 0.862355 45.1375C0.797071 45.1375 0.759766 45.1002 0.75044 45.0256C0.741113 44.951 0.73645 44.895 0.73645 44.8577C0.73645 44.7738 0.773755 44.7318 0.848366 44.7318C0.969608 44.7318 1.08619 44.7365 1.1981 44.7458C1.31002 44.7551 1.4266 44.7644 1.54784 44.7738C1.73436 44.7831 1.92089 44.7924 2.10742 44.8017C2.30327 44.8111 2.49912 44.8157 2.69497 44.8157C3.02139 44.8157 3.34781 44.8064 3.67423 44.7878C4.00998 44.7691 4.34106 44.7598 4.66748 44.7598C4.73277 44.7598 4.76541 44.7878 4.76541 44.8437C4.76541 44.8997 4.76541 44.951 4.76541 44.9976C4.76541 45.1002 4.71878 45.1515 4.62552 45.1515C4.52293 45.1515 4.42034 45.1468 4.31775 45.1375C4.22449 45.1282 4.12656 45.1235 4.02397 45.1235C3.92138 45.1235 3.8048 45.1515 3.67423 45.2074C3.54367 45.2634 3.47838 45.3567 3.47838 45.4872V49.3903H9.11613V45.5991C9.11613 45.4126 9.06483 45.2867 8.96224 45.2214C8.85965 45.1561 8.71976 45.1235 8.54256 45.1235C8.43997 45.1235 8.33272 45.1282 8.2208 45.1375C8.10889 45.1375 8.00164 45.1375 7.89905 45.1375C7.84309 45.1375 7.81045 45.1095 7.80112 45.0536C7.80112 44.9883 7.80112 44.937 7.80112 44.8997C7.80112 44.7878 7.83842 44.7318 7.91304 44.7318C8.13687 44.7318 8.36536 44.7411 8.59852 44.7598C8.841 44.7784 9.07882 44.7878 9.31198 44.7878H9.73166C10.0674 44.7878 10.3985 44.7784 10.7249 44.7598C11.0607 44.7411 11.3917 44.7318 11.7182 44.7318C11.7648 44.7318 11.7974 44.7505 11.8161 44.7878C11.8347 44.8251 11.8441 44.867 11.8441 44.9137Z" stroke="#393E46" stroke-width="2" mask="url(#path-1-inside-1_925_172)"/>
<path d="M20.8101 51.3068C20.8101 50.9058 20.7775 50.5048 20.7122 50.1037C20.6562 49.6934 20.5443 49.3157 20.3764 48.9706C20.2179 48.6255 19.9847 48.3504 19.677 48.1452C19.3692 47.9307 18.9682 47.8235 18.4739 47.8235C18.0075 47.8235 17.6252 47.9354 17.3267 48.1592C17.0376 48.383 16.8091 48.6722 16.6412 49.0266C16.4827 49.381 16.3708 49.7633 16.3055 50.1737C16.2495 50.5841 16.2216 50.9711 16.2216 51.3348C16.2216 51.7359 16.2495 52.1369 16.3055 52.5379C16.3708 52.9389 16.4874 53.3027 16.6552 53.6291C16.8231 53.9462 17.0609 54.2027 17.3687 54.3985C17.6858 54.5944 18.0915 54.6923 18.5858 54.6923C19.0707 54.6923 19.4578 54.5897 19.7469 54.3845C20.0453 54.1793 20.2692 53.9089 20.4184 53.5731C20.5769 53.2374 20.6795 52.8737 20.7262 52.482C20.7821 52.0809 20.8101 51.6892 20.8101 51.3068ZM22.251 51.3488C22.251 52.0483 22.0831 52.6778 21.7474 53.2374C21.421 53.797 20.9733 54.24 20.4044 54.5664C19.8448 54.8928 19.2153 55.056 18.5158 55.056C17.835 55.056 17.2195 54.8928 16.6692 54.5664C16.119 54.2306 15.6806 53.7876 15.3542 53.2374C15.0278 52.6778 14.8646 52.0576 14.8646 51.3768C14.8646 50.6773 15.0231 50.0338 15.3402 49.4462C15.6573 48.8494 16.091 48.3691 16.6412 48.0053C17.2008 47.6416 17.8443 47.4597 18.5718 47.4597C19.3552 47.4597 20.022 47.6276 20.5723 47.9634C21.1225 48.2898 21.5376 48.7468 21.8173 49.3343C22.1065 49.9126 22.251 50.5841 22.251 51.3488Z" stroke="#393E46" stroke-width="2" mask="url(#path-1-inside-1_925_172)"/>
<path d="M37.739 54.8182C37.739 54.9488 37.6877 55.014 37.5851 55.014C37.3239 55.014 37.0581 55.0047 36.7877 54.9861C36.5172 54.9674 36.2468 54.9581 35.9763 54.9581C35.7058 54.9581 35.4307 54.9674 35.1509 54.9861C34.8805 55.0047 34.61 55.014 34.3395 55.014C34.3022 55.014 34.2742 54.9907 34.2556 54.9441C34.2463 54.8975 34.2416 54.8602 34.2416 54.8322C34.2416 54.7482 34.2836 54.6969 34.3675 54.6783C34.4608 54.6596 34.5587 54.655 34.6613 54.6643C34.7732 54.6736 34.8571 54.6783 34.9131 54.6783C35.0437 54.6783 35.1509 54.6457 35.2349 54.5804C35.3188 54.5151 35.3608 54.4172 35.3608 54.2866C35.3608 53.6617 35.3654 53.0415 35.3748 52.426C35.3934 51.8105 35.4027 51.1949 35.4027 50.5794C35.4027 50.4768 35.4027 50.3742 35.4027 50.2716C35.4027 50.169 35.3981 50.0664 35.3887 49.9639C35.3794 49.74 35.3654 49.5115 35.3468 49.2784C35.3374 49.0359 35.3001 48.8121 35.2349 48.6069C35.1696 48.3924 35.0577 48.2198 34.8991 48.0893C34.7406 47.9587 34.5121 47.8934 34.2136 47.8934C33.9991 47.8934 33.7613 47.9587 33.5002 48.0893C33.2484 48.2105 33.0059 48.3551 32.7727 48.5229C32.5396 48.6908 32.3437 48.8494 32.1852 48.9986C32.2038 49.1291 32.2131 49.2644 32.2131 49.4043C32.2131 49.5348 32.2131 49.6654 32.2131 49.796C32.2131 50.0664 32.2131 50.3416 32.2131 50.6214C32.2225 50.8918 32.2271 51.1623 32.2271 51.4327C32.2271 51.9084 32.2225 52.384 32.2131 52.8597C32.2131 53.3353 32.2131 53.8109 32.2131 54.2866C32.2131 54.4265 32.2738 54.5244 32.395 54.5804C32.5162 54.6363 32.6375 54.6643 32.7587 54.6643C32.8333 54.6643 32.9079 54.6596 32.9826 54.6503C33.0665 54.641 33.1411 54.6363 33.2064 54.6363C33.253 54.6363 33.281 54.6596 33.2903 54.7063C33.309 54.7529 33.3183 54.7902 33.3183 54.8182C33.3183 54.8648 33.3043 54.9115 33.2763 54.9581C33.2484 54.9954 33.2064 55.014 33.1504 55.014C32.8893 55.014 32.6235 55.0047 32.353 54.9861C32.0919 54.9674 31.8261 54.9581 31.5556 54.9581C31.2945 54.9581 31.0287 54.9674 30.7582 54.9861C30.4878 55.0047 30.2173 55.014 29.9468 55.014C29.9095 55.014 29.8816 54.9907 29.8629 54.9441C29.8443 54.8975 29.8349 54.8602 29.8349 54.8322C29.8349 54.7576 29.8722 54.7063 29.9468 54.6783C30.0215 54.6596 30.1101 54.655 30.2126 54.6643C30.3246 54.6736 30.4178 54.6783 30.4924 54.6783C30.623 54.6783 30.7303 54.6503 30.8142 54.5944C30.9075 54.5291 30.9541 54.4265 30.9541 54.2866V50.7193C30.9541 50.5234 30.9494 50.2809 30.9401 49.9918C30.9401 49.7027 30.9214 49.4183 30.8841 49.1385C30.8562 48.8494 30.8049 48.6209 30.7303 48.453C30.665 48.2851 30.5531 48.1546 30.3945 48.0613C30.2453 47.968 30.0774 47.9214 29.8909 47.9214C29.6484 47.9214 29.4013 47.982 29.1495 48.1033C28.8976 48.2245 28.6598 48.3737 28.436 48.5509C28.2122 48.7281 28.021 48.9053 27.8624 49.0825V54.2726C27.8624 54.4125 27.9137 54.5151 28.0163 54.5804C28.1189 54.6363 28.2308 54.6643 28.3521 54.6643C28.4267 54.6643 28.5013 54.6596 28.5759 54.6503C28.6505 54.6317 28.7204 54.6223 28.7857 54.6223C28.823 54.6223 28.8463 54.6503 28.8557 54.7063C28.865 54.7529 28.8697 54.7856 28.8697 54.8042C28.8697 54.8508 28.8557 54.8975 28.8277 54.9441C28.809 54.9814 28.7717 55.0001 28.7158 55.0001C28.5386 55.0001 28.3614 54.9954 28.1842 54.9861C28.007 54.9674 27.8298 54.9581 27.6526 54.9581C27.2982 54.9581 26.9438 54.9674 26.5894 54.9861C26.235 54.9954 25.8806 55.0001 25.5262 55.0001C25.4889 55.0001 25.4609 54.9767 25.4422 54.9301C25.4236 54.8835 25.4143 54.8462 25.4143 54.8182C25.4143 54.7063 25.4609 54.6503 25.5542 54.6503C25.6568 54.6503 25.7547 54.655 25.8479 54.6643C25.9412 54.6643 26.0345 54.6643 26.1277 54.6643C26.2583 54.6643 26.3702 54.6363 26.4635 54.5804C26.5567 54.5151 26.6034 54.4125 26.6034 54.2726C26.6034 53.3306 26.5987 52.3887 26.5894 51.4467C26.5894 50.4955 26.5894 49.5488 26.5894 48.6069C26.5894 48.5043 26.5801 48.4017 26.5614 48.2991C26.5427 48.1965 26.4821 48.1266 26.3795 48.0893C26.3143 48.0613 26.2443 48.0473 26.1697 48.0473C26.0485 48.0473 25.9272 48.066 25.806 48.1033C25.6847 48.1312 25.5588 48.1452 25.4283 48.1452C25.3443 48.1452 25.3024 48.0893 25.3024 47.9774C25.3024 47.9027 25.3303 47.8561 25.3863 47.8375C25.4329 47.8188 25.4842 47.8095 25.5402 47.8095C25.6055 47.8002 25.6661 47.7908 25.722 47.7815C25.9365 47.7535 26.151 47.7209 26.3655 47.6836C26.5894 47.6369 26.8039 47.5903 27.0091 47.5437C27.0837 47.525 27.1629 47.5064 27.2469 47.4877C27.3308 47.4691 27.4148 47.4597 27.4987 47.4597C27.6106 47.4597 27.6852 47.5437 27.7225 47.7116C27.7692 47.8701 27.7925 48.0426 27.7925 48.2292C27.8018 48.4157 27.8065 48.5509 27.8065 48.6349C28.0023 48.467 28.2215 48.2944 28.464 48.1172C28.7065 47.9307 28.9629 47.7722 29.2334 47.6416C29.5038 47.511 29.7743 47.4458 30.0448 47.4458C30.5204 47.4458 30.9214 47.525 31.2479 47.6836C31.5743 47.8421 31.8541 48.1406 32.0872 48.5789C32.2924 48.4017 32.5256 48.2245 32.7867 48.0473C33.0478 47.8608 33.3183 47.7069 33.5981 47.5856C33.8872 47.4551 34.1717 47.3898 34.4515 47.3898C35.067 47.3898 35.5333 47.4784 35.8504 47.6556C36.1768 47.8328 36.396 48.1079 36.5079 48.481C36.6291 48.8447 36.6898 49.3157 36.6898 49.8939C36.6898 50.6214 36.6851 51.3535 36.6758 52.0902C36.6664 52.8177 36.6618 53.5498 36.6618 54.2866C36.6618 54.4265 36.7224 54.5244 36.8436 54.5804C36.9742 54.6363 37.1001 54.6643 37.2214 54.6643C37.296 54.6643 37.3659 54.6596 37.4312 54.6503C37.5058 54.641 37.5758 54.6363 37.641 54.6363C37.6783 54.6363 37.7017 54.6596 37.711 54.7063C37.7296 54.7529 37.739 54.7902 37.739 54.8182Z" stroke="#393E46" stroke-width="2" mask="url(#path-1-inside-1_925_172)"/>
<path d="M45.6699 50.0898C45.6606 49.7074 45.6279 49.3437 45.572 48.9986C45.516 48.6442 45.3808 48.3551 45.1663 48.1312C44.9518 47.8981 44.602 47.7815 44.1171 47.7815C43.6787 47.7815 43.3197 47.9027 43.0399 48.1452C42.7694 48.3784 42.5596 48.6768 42.4103 49.0406C42.2611 49.3949 42.1492 49.7587 42.0746 50.1317C42.3078 50.1411 42.5363 50.1504 42.7601 50.1597C42.9839 50.1597 43.2077 50.1597 43.4316 50.1597C43.8046 50.1597 44.1777 50.155 44.5507 50.1457C44.9238 50.1271 45.2968 50.1084 45.6699 50.0898ZM47.2787 53.2933C47.2787 53.34 47.2694 53.368 47.2507 53.3773C47.2227 53.4705 47.1528 53.5825 47.0409 53.713C46.9383 53.8436 46.8217 53.9695 46.6911 54.0907C46.5606 54.2027 46.4533 54.2866 46.3694 54.3425C46.0616 54.5571 45.7119 54.7296 45.3202 54.8602C44.9378 54.9907 44.5554 55.056 44.173 55.056C43.8559 55.056 43.5015 55.0047 43.1098 54.9021C42.7274 54.7995 42.401 54.6596 42.1306 54.4824C41.6083 54.1374 41.2259 53.685 40.9834 53.1255C40.7409 52.5659 40.6197 51.983 40.6197 51.3768C40.6197 50.6866 40.7549 50.0478 41.0254 49.4602C41.2959 48.8727 41.7295 48.397 42.3264 48.0333C42.5969 47.8748 42.9 47.7442 43.2357 47.6416C43.5715 47.5297 43.8932 47.4737 44.201 47.4737C44.7512 47.4737 45.2362 47.5856 45.6559 47.8095C46.0756 48.0333 46.402 48.3504 46.6352 48.7608C46.8776 49.1618 46.9989 49.6421 46.9989 50.2017C46.9989 50.3602 46.9616 50.4628 46.887 50.5094C46.8217 50.5561 46.7191 50.5794 46.5792 50.5794C46.3927 50.5794 46.2062 50.5747 46.0196 50.5654C45.8331 50.5561 45.6466 50.5467 45.46 50.5374C45.1989 50.5188 44.9378 50.5094 44.6766 50.5094C44.4248 50.5094 44.1684 50.5094 43.9072 50.5094C43.5901 50.5094 43.273 50.5094 42.9559 50.5094C42.6388 50.5094 42.3217 50.5188 42.0047 50.5374C41.9953 50.6866 41.986 50.8312 41.9767 50.9711C41.9674 51.111 41.9627 51.2555 41.9627 51.4048C41.9627 51.7498 42.0047 52.1089 42.0886 52.482C42.1725 52.8457 42.3078 53.1861 42.4943 53.5032C42.6808 53.8109 42.9186 54.0628 43.2077 54.2586C43.4969 54.4451 43.8466 54.5384 44.257 54.5384C44.6766 54.5384 45.0777 54.4731 45.46 54.3425C45.8424 54.212 46.1922 54.0021 46.5093 53.713C46.5932 53.6291 46.6678 53.5405 46.7331 53.4472C46.8077 53.3446 46.887 53.256 46.9709 53.1814C47.0175 53.1348 47.0688 53.1115 47.1248 53.1115C47.1714 53.1115 47.2087 53.1301 47.2367 53.1674C47.2647 53.2047 47.2787 53.2467 47.2787 53.2933Z" stroke="#393E46" stroke-width="2" mask="url(#path-1-inside-1_925_172)"/>
<path d="M40 32.0001V11.5352C40 11.2009 39.8329 10.8887 39.5547 10.7032L24.0547 0.369854C23.7188 0.145921 23.2812 0.145921 22.9453 0.369854L7.44532 10.7032C7.16712 10.8887 7.00002 11.2009 7.00002 11.5352V32.0001C7.00002 32.5523 7.44774 33.0001 8.00002 33.0001H18.375C18.9273 33.0001 19.375 32.5523 19.375 32.0001V20.2501C19.375 19.6978 19.8227 19.2501 20.375 19.2501H26.625C27.1773 19.2501 27.625 19.6978 27.625 20.2501V32.0001C27.625 32.5523 28.0727 33.0001 28.625 33.0001H39C39.5523 33.0001 40 32.5523 40 32.0001Z" stroke="#393E46" stroke-width="2" mask="url(#path-1-inside-1_925_172)"/>
</svg>
