<svg width="33" height="33" viewBox="0 0 33 33" fill="none" xmlns="http://www.w3.org/2000/svg">
<path d="M32.2773 11.1192L32.5547 10.7031L32.2774 11.1192C32.4165 11.2119 32.5 11.368 32.5 11.5352V32C32.5 32.2761 32.2761 32.5 32 32.5H21.625C21.3489 32.5 21.125 32.2761 21.125 32V20.25C21.125 19.4216 20.4534 18.75 19.625 18.75H13.375C12.5466 18.75 11.875 19.4216 11.875 20.25V26.125V32C11.875 32.2761 11.6511 32.5 11.375 32.5H1C0.723858 32.5 0.5 32.2761 0.5 32V11.5352C0.5 11.368 0.58355 11.2119 0.72265 11.1192L16.2226 0.785825C16.3906 0.673859 16.6094 0.673859 16.7774 0.785825L32.2773 11.1192Z" stroke="#FFD369"/>
</svg>
