<svg width="55" height="48" viewBox="0 0 55 48" fill="none" xmlns="http://www.w3.org/2000/svg">
<path d="M29.7041 6.86271L30.5757 9.54508L28.2939 7.88729L28 7.67376L27.7061 7.88729L25.4243 9.54508L26.2959 6.86271L26.4082 6.51722L26.1143 6.3037L23.8325 4.6459H26.6529H27.0162L27.1284 4.30041L28 1.61804L28.8716 4.30041L28.9838 4.6459H29.3471H32.1675L29.8857 6.3037L29.5918 6.51722L29.7041 6.86271ZM20.5 12.5H35.5V39.5H20.5V12.5ZM0.5 43.5H54.5V47.5H0.5V43.5ZM0.5 24.5H16.5V39.5H0.5V24.5ZM39.5 32.5H54.5V39.5H39.5V32.5Z" stroke="#FFD369"/>
</svg>
