<svg width="51" height="51" viewBox="0 0 51 51" fill="none" xmlns="http://www.w3.org/2000/svg">
<path fill-rule="evenodd" clip-rule="evenodd" d="M25.4998 5.16671C36.7296 5.16671 45.8332 14.2702 45.8332 25.5C45.8332 36.7298 36.7296 45.8334 25.4998 45.8334C14.2701 45.8334 5.16651 36.7298 5.16651 25.5C5.16651 14.2702 14.2701 5.16671 25.4998 5.16671ZM50.9165 25.5C50.9165 11.4628 39.5371 0.083374 25.4998 0.083374C11.4626 0.083374 0.0831757 11.4628 0.0831757 25.5C0.0831757 39.5373 11.4626 50.9167 25.4998 50.9167C39.5371 50.9167 50.9165 39.5373 50.9165 25.5ZM29.8387 16.0778C28.8462 15.0852 27.2369 15.0852 26.2443 16.0778L18.6193 23.7028C17.6267 24.6954 17.6267 26.3047 18.6193 27.2973L26.2443 34.9223C27.2369 35.9149 28.8462 35.9149 29.8387 34.9223C30.8313 33.9297 30.8313 32.3204 29.8387 31.3278L24.011 25.5L29.8387 19.6723C30.8313 18.6797 30.8313 17.0704 29.8387 16.0778Z" fill="#FFD369"/>
</svg>
