<svg width="37" height="45" viewBox="0 0 37 45" fill="none" xmlns="http://www.w3.org/2000/svg">
<path d="M29.8515 11.3438C29.8515 8.09202 28.8353 5.73446 26.8029 4.27115C24.8112 2.76719 22.3114 2.01521 19.3035 2.01521C18.4905 2.01521 17.6572 2.03554 16.8036 2.07618C15.95 2.07618 15.0964 2.07618 14.2428 2.07618C13.8364 2.07618 13.4299 2.19813 13.0234 2.44201C12.6169 2.6859 12.4137 3.0314 12.4137 3.47852V20.7944C13.3079 21.4447 14.4054 21.8309 15.7061 21.9528C17.0069 22.0748 18.1653 22.1358 19.1815 22.1358C22.6772 22.1358 25.3193 21.2009 27.1078 19.3311C28.9369 17.4613 29.8515 14.7989 29.8515 11.3438ZM36.5583 11.1609C36.5583 13.803 36.0502 15.9573 35.0341 17.6239C34.0585 19.2904 32.7375 20.5911 31.0709 21.526C29.4044 22.4609 27.5143 23.1113 25.4006 23.4771C23.3276 23.8023 21.1936 23.9649 18.9986 23.9649C17.9011 23.9649 16.8036 23.9039 15.7061 23.782C14.6087 23.66 13.5315 23.5178 12.4747 23.3552V41.5856C12.4747 42.1953 12.7389 42.6018 13.2673 42.805C13.7957 43.0083 14.3851 43.1099 15.0355 43.1099C15.6858 43.1099 16.2142 43.1099 16.6207 43.1099C16.8646 43.1099 17.1085 43.1099 17.3524 43.1099C17.6369 43.0692 17.9011 43.0489 18.145 43.0489C18.5108 43.0489 18.6937 43.2115 18.6937 43.5367C18.6937 44.0651 18.6531 44.4309 18.5718 44.6342C18.4905 44.7968 18.1653 44.8781 17.5963 44.8781C16.2142 44.8781 14.8525 44.8374 13.5112 44.7561C12.1698 44.6748 10.8284 44.6342 9.48707 44.6342C8.10505 44.6342 6.70271 44.6951 5.28005 44.8171C3.89803 44.8984 2.51601 44.939 1.134 44.939C0.727521 44.939 0.524283 44.6748 0.524283 44.1464C0.524283 43.9025 0.564931 43.679 0.646226 43.4757C0.727521 43.2725 0.930759 43.1709 1.25594 43.1709C1.74371 43.1709 2.23148 43.1912 2.71925 43.2318C3.20702 43.2318 3.69479 43.2318 4.18256 43.2318C4.67033 43.2318 5.09713 43.1099 5.46296 42.866C5.86944 42.6221 6.093 42.236 6.13365 41.7075C6.21494 40.9759 6.23526 40.2442 6.19462 39.5126C6.19462 38.7403 6.19462 37.9883 6.19462 37.2566C6.19462 35.7933 6.19462 34.33 6.19462 32.8667C6.19462 31.3627 6.19462 29.8791 6.19462 28.4158V17.7458C6.19462 15.3476 6.17429 12.9697 6.13365 10.6122C6.13365 8.21397 6.13365 5.83608 6.13365 3.47852C6.13365 2.74687 5.76782 2.32007 5.03616 2.19813C4.34515 2.03554 3.73544 1.95424 3.20702 1.95424C2.84119 1.95424 2.47537 1.97457 2.10954 2.01521C1.74371 2.01521 1.39821 2.01521 1.07303 2.01521C0.788492 2.01521 0.625902 1.89327 0.585254 1.64939C0.585254 1.36485 0.585254 1.14129 0.585254 0.9787C0.585254 0.816111 0.625902 0.673846 0.707197 0.551902C0.788492 0.389312 0.910435 0.308016 1.07303 0.308016C2.41439 0.308016 3.75576 0.348665 5.09713 0.429961C6.4385 0.511255 7.80019 0.551902 9.18221 0.551902C11.2959 0.551902 13.4096 0.511255 15.5232 0.429961C17.6369 0.348665 19.7506 0.308016 21.8642 0.308016C23.5714 0.308016 25.2786 0.49093 26.9858 0.856759C28.7337 1.22259 30.3189 1.8323 31.7416 2.6859C33.2049 3.5395 34.3634 4.6573 35.217 6.03932C36.1112 7.42134 36.5583 9.12854 36.5583 11.1609Z" fill="#FFD369"/>
</svg>
