 <svg width="147" height="124" viewBox="0 0 147 124" fill="none" xmlns="http://www.w3.org/2000/svg">
    <path d="M77.5307 60.412C77.5307 60.4991 77.5198 60.6189 77.498 60.7713C77.4763 60.902 77.4 60.9673 77.2694 60.9673C77.0081 60.9673 76.7467 60.9564 76.4854 60.9347C76.2459 60.9129 75.9955 60.902 75.7341 60.902C74.6671 60.8367 73.5783 60.804 72.4676 60.804C71.9886 60.804 71.5095 60.8149 71.0304 60.8367C70.5513 60.8585 70.0722 60.8802 69.5931 60.902C69.3754 60.9238 69.1467 60.9456 68.9072 60.9673C68.6894 60.9891 68.4608 61 68.2212 61C68.047 61 67.9599 60.8911 67.9599 60.6734C67.9599 60.5209 67.9708 60.3794 67.9926 60.2487C68.0143 60.118 68.1232 60.0527 68.3192 60.0527C68.537 60.0527 68.7438 60.0636 68.9398 60.0854C69.1358 60.0854 69.3427 60.0854 69.5605 60.0854C69.8218 60.0854 70.1267 60.0201 70.4751 59.8894C70.8453 59.7587 71.0304 59.541 71.0304 59.2361V38.9512C71.0304 38.581 70.8888 38.3415 70.6057 38.2326C70.3227 38.1019 69.9851 38.0366 69.5931 38.0366C69.2229 38.0366 68.8745 38.0475 68.5479 38.0693C68.243 38.0693 68.0688 38.0148 68.0252 37.9059C68.0034 37.8624 67.9926 37.7644 67.9926 37.6119C67.9926 37.5248 68.0034 37.4268 68.0252 37.318C68.047 37.1873 68.1123 37.122 68.2212 37.122C68.9398 37.122 69.6585 37.1438 70.3771 37.1873C71.1175 37.2309 71.847 37.2526 72.5656 37.2526H74.0356C74.384 37.2526 74.7324 37.2526 75.0808 37.2526C75.451 37.2526 75.8104 37.2417 76.1588 37.22C76.333 37.1982 76.4963 37.1873 76.6487 37.1873C76.823 37.1655 76.9863 37.1546 77.1387 37.1546C77.3783 37.1546 77.498 37.2744 77.498 37.514C77.498 37.6446 77.4871 37.7644 77.4654 37.8733C77.4436 37.9822 77.3456 38.0366 77.1714 38.0366C76.9101 38.0366 76.6487 38.0366 76.3874 38.0366C76.1479 38.0148 75.8975 38.0039 75.6361 38.0039C75.3748 38.0039 75.0917 38.091 74.7869 38.2652C74.5038 38.4177 74.3622 38.6463 74.3622 38.9512V59.2361C74.3622 59.5192 74.4929 59.7261 74.7542 59.8567C75.0155 59.9874 75.2768 60.0527 75.5381 60.0527C75.8212 60.0527 76.0934 60.0527 76.3548 60.0527C76.6379 60.0309 76.921 60.0201 77.2041 60.0201C77.4218 60.0201 77.5307 60.1507 77.5307 60.412ZM109.382 37.6119C109.382 37.6773 109.36 37.7753 109.316 37.9059C109.273 38.0148 109.197 38.0693 109.088 38.0693C108.914 38.0693 108.739 38.0693 108.565 38.0693C108.391 38.0475 108.217 38.0366 108.043 38.0366C107.455 38.0366 107.041 38.1019 106.801 38.2326C106.583 38.3415 106.453 38.5375 106.409 38.8205C106.387 39.1036 106.377 39.4956 106.377 39.9965V60.608C106.377 60.804 106.3 60.902 106.148 60.902L104.678 60.9347C104.591 60.4556 104.428 59.9765 104.188 59.4974C103.97 59.0183 103.709 58.5828 103.404 58.1908C101.052 55.0985 98.7003 52.028 96.3485 48.9793C93.9966 45.9088 91.6774 42.8166 89.3909 39.7025V59.2034C89.3909 59.5083 89.4997 59.7261 89.7175 59.8567C89.957 59.9656 90.2184 60.0309 90.5015 60.0527C90.8063 60.0527 91.0677 60.0527 91.2854 60.0527C91.4596 60.0527 91.623 60.0527 91.7754 60.0527C91.9496 60.0309 92.1238 60.0201 92.298 60.0201C92.494 60.0201 92.592 60.1398 92.592 60.3794C92.592 60.5536 92.5702 60.706 92.5267 60.8367C92.5049 60.9673 92.3742 61.0327 92.1347 61.0327C91.9387 61.0327 91.7318 61.0218 91.5141 61C91.3181 60.9564 91.1221 60.9238 90.9261 60.902C90.5995 60.8585 90.2619 60.8476 89.9135 60.8693C89.5651 60.8693 89.2275 60.8693 88.9009 60.8693C88.2911 60.8693 87.6923 60.902 87.1043 60.9673C86.5381 61.0109 85.9502 61.0327 85.3404 61.0327C85.188 61.0327 85.1118 60.9347 85.1118 60.7387C85.1118 60.412 85.1444 60.216 85.2098 60.1507C85.2751 60.0854 85.4602 60.0527 85.7651 60.0527C85.9393 60.0527 86.1026 60.0636 86.255 60.0854C86.4292 60.0854 86.5926 60.0854 86.745 60.0854C87.0934 60.0854 87.3983 60.0418 87.6596 59.9547C87.9427 59.8676 88.0952 59.6172 88.1169 59.2034C88.1605 58.1582 88.1714 57.102 88.1496 56.0349C88.1278 54.9679 88.1169 53.9117 88.1169 52.8664C88.1169 50.5799 88.1278 48.2934 88.1496 46.0068C88.1931 43.7203 88.2149 41.4229 88.2149 39.1145C88.2149 38.7226 88.106 38.4503 87.8883 38.2979C87.6923 38.1237 87.4419 38.0257 87.137 38.0039C86.8321 37.9821 86.5272 37.9713 86.2224 37.9713C86.1135 37.9713 85.9937 37.9821 85.8631 38.0039C85.7324 38.0039 85.6126 38.0039 85.5037 38.0039C85.2206 38.0039 85.0791 37.895 85.0791 37.6773C85.0791 37.5248 85.09 37.3942 85.1118 37.2853C85.1553 37.1546 85.2751 37.0893 85.4711 37.0893C86.0373 37.0893 86.6035 37.1111 87.1696 37.1546C87.7358 37.1764 88.302 37.1873 88.8682 37.1873C89.2602 37.1873 89.6522 37.1873 90.0442 37.1873C90.4579 37.1655 90.8608 37.1546 91.2528 37.1546C92.0585 38.2435 92.886 39.3105 93.7353 40.3558C94.5846 41.4011 95.4339 42.4463 96.2831 43.4916C97.764 45.2991 99.2448 47.1065 100.726 48.914C102.206 50.6997 103.687 52.4962 105.168 54.3037V38.8859C105.168 38.581 105.005 38.3632 104.678 38.2326C104.351 38.1019 104.068 38.0366 103.829 38.0366C103.546 38.0366 103.273 38.0475 103.012 38.0693C102.751 38.091 102.479 38.1019 102.195 38.1019C102.043 38.1019 101.967 37.993 101.967 37.7753C101.967 37.7099 101.967 37.6446 101.967 37.5793C101.967 37.4922 101.978 37.4268 102 37.3833C102 37.1873 102.119 37.0893 102.359 37.0893C102.664 37.0893 102.979 37.1111 103.306 37.1546C103.633 37.1764 103.949 37.1873 104.253 37.1873C105.081 37.1873 105.898 37.1764 106.703 37.1546C107.509 37.1329 108.315 37.0893 109.12 37.024C109.251 37.1111 109.327 37.1982 109.349 37.2853C109.371 37.3506 109.382 37.4595 109.382 37.6119ZM139.704 50.9392C139.704 51.0699 139.671 51.1896 139.606 51.2985C139.54 51.4074 139.431 51.4619 139.279 51.4619H137.254V58.4521C135.729 58.9748 134.216 59.5519 132.713 60.1834C131.995 60.4883 131.233 60.6842 130.427 60.7713C129.643 60.8585 128.87 60.902 128.108 60.902C127.454 60.902 126.725 60.8258 125.919 60.6734C125.113 60.5209 124.329 60.3031 123.567 60.0201C122.827 59.737 122.174 59.4103 121.607 59.0401C119.952 57.9295 118.722 56.4922 117.916 54.7283C117.132 52.9644 116.74 51.0917 116.74 49.11C116.74 47.4332 117.002 45.8544 117.524 44.3736C118.069 42.8928 118.842 41.5862 119.843 40.4538C120.845 39.3214 122.043 38.4395 123.437 37.8079C124.852 37.1546 126.431 36.828 128.173 36.828C129.458 36.828 130.688 37.0022 131.864 37.3506C132.06 37.416 132.376 37.514 132.811 37.6446C133.247 37.7753 133.682 37.9059 134.118 38.0366C134.554 38.1455 134.848 38.1999 135 38.1999C135.457 38.1999 135.773 38.1455 135.947 38.0366C136.121 37.9059 136.252 37.7644 136.339 37.6119C136.448 37.4595 136.601 37.3397 136.797 37.2526H137.058C137.232 37.2526 137.33 37.3506 137.352 37.5466C137.395 37.7644 137.406 37.993 137.384 38.2326C137.384 38.4721 137.384 38.7117 137.384 38.9512C137.384 39.6263 137.395 40.3014 137.417 40.9764C137.461 41.6515 137.482 42.3375 137.482 43.0343C137.482 43.2956 137.472 43.6005 137.45 43.9489C137.45 44.2974 137.254 44.4716 136.862 44.4716C136.731 44.4716 136.611 44.4607 136.503 44.4389C136.415 44.3954 136.328 44.3191 136.241 44.2103C136.219 44.1667 136.165 44.0469 136.078 43.8509C135.991 43.6332 135.904 43.4154 135.817 43.1976C135.729 42.9581 135.664 42.7948 135.621 42.7077C135.033 41.3793 134.172 40.2687 133.04 39.3759C132.452 38.8968 131.701 38.5157 130.786 38.2326C129.893 37.9495 129.066 37.8079 128.304 37.8079C126.845 37.8079 125.603 38.1673 124.58 38.8859C123.556 39.5827 122.729 40.4973 122.097 41.6297C121.466 42.7621 121.008 43.9816 120.725 45.2882C120.442 46.5948 120.301 47.8578 120.301 49.0773C120.301 50.3621 120.453 51.6252 120.758 52.8664C121.063 54.1077 121.531 55.2292 122.163 56.2309C122.816 57.2327 123.665 58.0384 124.711 58.6481C125.756 59.2361 127.008 59.5301 128.467 59.5301C128.903 59.5301 129.425 59.4865 130.035 59.3994C130.645 59.3123 131.254 59.1599 131.864 58.9421C132.474 58.7243 132.975 58.4304 133.367 58.0602C133.78 57.69 133.987 57.2218 133.987 56.6556V52.3438C133.987 51.9954 133.813 51.7776 133.465 51.6905C133.138 51.5816 132.855 51.5272 132.615 51.5272C132.289 51.5272 131.962 51.549 131.635 51.5925C131.309 51.6143 130.982 51.6252 130.656 51.6252C130.481 51.6252 130.362 51.5707 130.296 51.4619C130.253 51.353 130.231 51.2223 130.231 51.0699C130.231 50.9392 130.253 50.8194 130.296 50.7106C130.34 50.5799 130.449 50.5146 130.623 50.5146C130.971 50.5146 131.309 50.5255 131.635 50.5472C131.962 50.5472 132.3 50.5472 132.648 50.5472H134.967C135.337 50.5472 135.708 50.5472 136.078 50.5472C136.448 50.5472 136.818 50.5364 137.189 50.5146C137.559 50.5146 137.918 50.5037 138.266 50.4819C138.615 50.4384 138.963 50.4166 139.312 50.4166C139.442 50.4166 139.54 50.4819 139.606 50.6126C139.671 50.7215 139.704 50.8303 139.704 50.9392Z" fill="#222831"/>
    <path d="M80.3955 86.9793C80.3955 85.7163 80.2539 84.4315 79.9709 83.1249C79.7095 81.8183 79.274 80.6097 78.6643 79.4991C78.0545 78.3885 77.2379 77.4956 76.2144 76.8205C75.1909 76.1237 73.9278 75.7753 72.4253 75.7753C70.9662 75.7753 69.725 76.1346 68.7015 76.8532C67.678 77.5718 66.8505 78.5082 66.2189 79.6624C65.5874 80.7948 65.1192 82.0252 64.8143 83.3535C64.5313 84.6601 64.3897 85.9232 64.3897 87.1427C64.3897 88.4275 64.5204 89.7232 64.7817 91.0298C65.043 92.3146 65.4785 93.5014 66.0883 94.5902C66.698 95.6573 67.5146 96.5175 68.5381 97.1708C69.5834 97.8241 70.8791 98.1507 72.4253 98.1507C73.9714 98.1507 75.2562 97.8132 76.2797 97.1381C77.3032 96.463 78.109 95.5811 78.6969 94.4922C79.3067 93.3816 79.7422 92.173 80.0035 90.8664C80.2648 89.5599 80.3955 88.2641 80.3955 86.9793ZM83.956 86.8813C83.956 89.2985 83.5095 91.4326 82.6167 93.2836C81.7456 95.1129 80.4499 96.5392 78.7296 97.5627C77.031 98.5862 74.9296 99.098 72.4253 99.098C69.9863 99.098 67.8957 98.608 66.1536 97.6281C64.4333 96.6264 63.1158 95.2327 62.2012 93.447C61.2865 91.6395 60.8292 89.5381 60.8292 87.1427C60.8292 85.4659 61.1014 83.8871 61.6459 82.4062C62.1903 80.9254 62.9742 79.6188 63.9977 78.4865C65.0212 77.3541 66.2407 76.4721 67.6562 75.8406C69.0934 75.1873 70.6831 74.8607 72.4253 74.8607C74.8642 74.8607 76.933 75.3724 78.6316 76.3959C80.3519 77.3976 81.6694 78.8022 82.584 80.6097C83.4987 82.3954 83.956 84.4859 83.956 86.8813ZM115.684 75.6119C115.684 75.6773 115.662 75.7753 115.618 75.9059C115.575 76.0148 115.499 76.0693 115.39 76.0693C115.216 76.0693 115.041 76.0693 114.867 76.0693C114.693 76.0475 114.519 76.0366 114.345 76.0366C113.757 76.0366 113.343 76.1019 113.103 76.2326C112.885 76.3415 112.755 76.5375 112.711 76.8205C112.689 77.1036 112.679 77.4956 112.679 77.9965V98.608C112.679 98.804 112.602 98.902 112.45 98.902L110.98 98.9347C110.893 98.4556 110.73 97.9765 110.49 97.4974C110.272 97.0183 110.011 96.5828 109.706 96.1908C107.354 93.0985 105.002 90.028 102.65 86.9793C100.299 83.9088 97.9794 80.8166 95.6929 77.7025V97.2034C95.6929 97.5083 95.8017 97.7261 96.0195 97.8567C96.2591 97.9656 96.5204 98.0309 96.8035 98.0527C97.1083 98.0527 97.3697 98.0527 97.5874 98.0527C97.7616 98.0527 97.925 98.0527 98.0774 98.0527C98.2516 98.0309 98.4258 98.0201 98.6 98.0201C98.796 98.0201 98.894 98.1398 98.894 98.3794C98.894 98.5536 98.8722 98.706 98.8287 98.8367C98.8069 98.9673 98.6763 99.0327 98.4367 99.0327C98.2407 99.0327 98.0338 99.0218 97.8161 99C97.6201 98.9564 97.4241 98.9238 97.2281 98.902C96.9015 98.8585 96.5639 98.8476 96.2155 98.8693C95.8671 98.8693 95.5295 98.8693 95.2029 98.8693C94.5931 98.8693 93.9943 98.902 93.4063 98.9673C92.8401 99.0109 92.2522 99.0327 91.6424 99.0327C91.49 99.0327 91.4138 98.9347 91.4138 98.7387C91.4138 98.412 91.4464 98.216 91.5118 98.1507C91.5771 98.0854 91.7622 98.0527 92.0671 98.0527C92.2413 98.0527 92.4046 98.0636 92.557 98.0854C92.7312 98.0854 92.8946 98.0854 93.047 98.0854C93.3954 98.0854 93.7003 98.0418 93.9616 97.9547C94.2447 97.8676 94.3972 97.6172 94.4189 97.2034C94.4625 96.1582 94.4734 95.102 94.4516 94.0349C94.4298 92.9679 94.4189 91.9117 94.4189 90.8664C94.4189 88.5799 94.4298 86.2934 94.4516 84.0068C94.4951 81.7203 94.5169 79.4229 94.5169 77.1145C94.5169 76.7226 94.408 76.4503 94.1903 76.2979C93.9943 76.1237 93.7439 76.0257 93.439 76.0039C93.1341 75.9821 92.8292 75.9713 92.5244 75.9713C92.4155 75.9713 92.2957 75.9821 92.1651 76.0039C92.0344 76.0039 91.9146 76.0039 91.8057 76.0039C91.5226 76.0039 91.3811 75.895 91.3811 75.6773C91.3811 75.5248 91.392 75.3942 91.4138 75.2853C91.4573 75.1546 91.5771 75.0893 91.7731 75.0893C92.3393 75.0893 92.9055 75.1111 93.4716 75.1546C94.0378 75.1764 94.604 75.1873 95.1702 75.1873C95.5622 75.1873 95.9542 75.1873 96.3462 75.1873C96.7599 75.1655 97.1628 75.1546 97.5548 75.1546C98.3605 76.2435 99.188 77.3105 100.037 78.3558C100.887 79.4011 101.736 80.4463 102.585 81.4916C104.066 83.2991 105.547 85.1065 107.028 86.914C108.508 88.6997 109.989 90.4962 111.47 92.3037V76.8859C111.47 76.581 111.307 76.3632 110.98 76.2326C110.653 76.1019 110.37 76.0366 110.131 76.0366C109.848 76.0366 109.575 76.0475 109.314 76.0693C109.053 76.091 108.781 76.1019 108.497 76.1019C108.345 76.1019 108.269 75.993 108.269 75.7753C108.269 75.7099 108.269 75.6446 108.269 75.5793C108.269 75.4922 108.28 75.4268 108.302 75.3833C108.302 75.1873 108.421 75.0893 108.661 75.0893C108.966 75.0893 109.281 75.1111 109.608 75.1546C109.935 75.1764 110.251 75.1873 110.555 75.1873C111.383 75.1873 112.2 75.1764 113.005 75.1546C113.811 75.1329 114.617 75.0893 115.422 75.024C115.553 75.1111 115.629 75.1982 115.651 75.2853C115.673 75.3506 115.684 75.4595 115.684 75.6119ZM146.006 88.9392C146.006 89.0699 145.973 89.1896 145.908 89.2985C145.842 89.4074 145.733 89.4619 145.581 89.4619H143.556V96.4521C142.031 96.9748 140.518 97.5519 139.015 98.1834C138.297 98.4883 137.535 98.6842 136.729 98.7713C135.945 98.8585 135.172 98.902 134.41 98.902C133.756 98.902 133.027 98.8258 132.221 98.6734C131.415 98.5209 130.631 98.3031 129.869 98.0201C129.129 97.737 128.476 97.4103 127.909 97.0401C126.254 95.9295 125.024 94.4922 124.218 92.7283C123.434 90.9644 123.042 89.0917 123.042 87.11C123.042 85.4332 123.304 83.8544 123.826 82.3736C124.371 80.8928 125.144 79.5862 126.145 78.4538C127.147 77.3214 128.345 76.4395 129.739 75.8079C131.154 75.1546 132.733 74.828 134.475 74.828C135.76 74.828 136.99 75.0022 138.166 75.3506C138.362 75.416 138.678 75.514 139.113 75.6446C139.549 75.7753 139.984 75.9059 140.42 76.0366C140.856 76.1455 141.15 76.1999 141.302 76.1999C141.759 76.1999 142.075 76.1455 142.249 76.0366C142.423 75.9059 142.554 75.7644 142.641 75.6119C142.75 75.4595 142.903 75.3397 143.099 75.2526H143.36C143.534 75.2526 143.632 75.3506 143.654 75.5466C143.697 75.7644 143.708 75.993 143.686 76.2326C143.686 76.4721 143.686 76.7117 143.686 76.9512C143.686 77.6263 143.697 78.3014 143.719 78.9764C143.763 79.6515 143.784 80.3375 143.784 81.0343C143.784 81.2956 143.774 81.6005 143.752 81.9489C143.752 82.2974 143.556 82.4716 143.164 82.4716C143.033 82.4716 142.913 82.4607 142.805 82.4389C142.717 82.3954 142.63 82.3191 142.543 82.2103C142.521 82.1667 142.467 82.0469 142.38 81.8509C142.293 81.6332 142.206 81.4154 142.119 81.1976C142.031 80.9581 141.966 80.7948 141.923 80.7077C141.335 79.3793 140.474 78.2687 139.342 77.3759C138.754 76.8968 138.003 76.5157 137.088 76.2326C136.195 75.9495 135.368 75.8079 134.606 75.8079C133.147 75.8079 131.905 76.1673 130.882 76.8859C129.858 77.5827 129.031 78.4973 128.399 79.6297C127.768 80.7621 127.311 81.9816 127.027 83.2882C126.744 84.5948 126.603 85.8578 126.603 87.0773C126.603 88.3621 126.755 89.6252 127.06 90.8664C127.365 92.1077 127.833 93.2292 128.465 94.2309C129.118 95.2327 129.967 96.0384 131.013 96.6481C132.058 97.2361 133.31 97.5301 134.769 97.5301C135.205 97.5301 135.727 97.4865 136.337 97.3994C136.947 97.3123 137.556 97.1599 138.166 96.9421C138.776 96.7243 139.277 96.4304 139.669 96.0602C140.082 95.69 140.289 95.2218 140.289 94.6556V90.3438C140.289 89.9954 140.115 89.7776 139.767 89.6905C139.44 89.5816 139.157 89.5272 138.917 89.5272C138.591 89.5272 138.264 89.549 137.937 89.5925C137.611 89.6143 137.284 89.6252 136.958 89.6252C136.783 89.6252 136.664 89.5707 136.598 89.4619C136.555 89.353 136.533 89.2223 136.533 89.0699C136.533 88.9392 136.555 88.8194 136.598 88.7106C136.642 88.5799 136.751 88.5146 136.925 88.5146C137.273 88.5146 137.611 88.5255 137.937 88.5472C138.264 88.5472 138.602 88.5472 138.95 88.5472H141.269C141.639 88.5472 142.01 88.5472 142.38 88.5472C142.75 88.5472 143.12 88.5364 143.491 88.5146C143.861 88.5146 144.22 88.5037 144.568 88.4819C144.917 88.4384 145.265 88.4166 145.614 88.4166C145.744 88.4166 145.842 88.4819 145.908 88.6126C145.973 88.7215 146.006 88.8303 146.006 88.9392Z" fill="#222831"/>
    <path d="M44.5243 50.428C44.5243 45.7351 43.0578 42.3327 40.1247 40.2209C37.2502 38.0504 33.6425 36.9651 29.3016 36.9651C28.1283 36.9651 26.9258 36.9945 25.6939 37.0531C24.462 37.0531 23.2301 37.0531 21.9982 37.0531C21.4116 37.0531 20.8249 37.2291 20.2383 37.5811C19.6517 37.9331 19.3584 38.4317 19.3584 39.077V64.0669C20.649 65.0055 22.2328 65.5628 24.11 65.7388C25.9872 65.9147 27.659 66.0027 29.1256 66.0027C34.1705 66.0027 37.9835 64.6535 40.5646 61.9551C43.2044 59.2566 44.5243 55.4143 44.5243 50.428ZM54.2035 50.164C54.2035 53.9771 53.4702 57.0861 52.0037 59.4913C50.5958 61.8964 48.6893 63.7736 46.2842 65.1228C43.879 66.472 41.1513 67.4106 38.1008 67.9386C35.1091 68.4079 32.0293 68.6425 28.8616 68.6425C27.2777 68.6425 25.6939 68.5545 24.11 68.3785C22.5261 68.2026 20.9716 67.9972 19.4464 67.7626V94.0724C19.4464 94.9523 19.8277 95.539 20.5903 95.8323C21.3529 96.1256 22.2035 96.2722 23.1421 96.2722C24.0807 96.2722 24.8433 96.2722 25.4299 96.2722C25.7819 96.2722 26.1338 96.2722 26.4858 96.2722C26.8964 96.2136 27.2777 96.1842 27.6297 96.1842C28.1577 96.1842 28.4216 96.4189 28.4216 96.8882C28.4216 97.6508 28.363 98.1787 28.2457 98.472C28.1283 98.7067 27.659 98.824 26.8378 98.824C24.8433 98.824 22.8781 98.7654 20.9423 98.648C19.0064 98.5307 17.0706 98.472 15.1347 98.472C13.1402 98.472 11.1164 98.56 9.06325 98.736C7.06875 98.8533 5.07425 98.912 3.07974 98.912C2.49313 98.912 2.19982 98.5307 2.19982 97.7681C2.19982 97.4161 2.25848 97.0935 2.3758 96.8002C2.49313 96.5069 2.78644 96.3602 3.25573 96.3602C3.95967 96.3602 4.66361 96.3895 5.36756 96.4482C6.0715 96.4482 6.77544 96.4482 7.47938 96.4482C8.18332 96.4482 8.79927 96.2722 9.32723 95.9203C9.91385 95.5683 10.2365 95.011 10.2951 94.2484C10.4125 93.1925 10.4418 92.1366 10.3831 91.0807C10.3831 89.9661 10.3831 88.8808 10.3831 87.8249C10.3831 85.7131 10.3831 83.6013 10.3831 81.4895C10.3831 79.319 10.3831 77.1778 10.3831 75.066V59.6673C10.3831 56.2062 10.3538 52.7745 10.2951 49.3721C10.2951 45.9111 10.2951 42.4793 10.2951 39.077C10.2951 38.021 9.76719 37.4051 8.71128 37.2291C7.71403 36.9945 6.8341 36.8771 6.0715 36.8771C5.54354 36.8771 5.01558 36.9065 4.48763 36.9651C3.95967 36.9651 3.46105 36.9651 2.99175 36.9651C2.58112 36.9651 2.34647 36.7892 2.28781 36.4372C2.28781 36.0265 2.28781 35.7039 2.28781 35.4693C2.28781 35.2346 2.34647 35.0293 2.4638 34.8533C2.58112 34.6187 2.7571 34.5013 2.99175 34.5013C4.92759 34.5013 6.86343 34.56 8.79927 34.6773C10.7351 34.7947 12.7003 34.8533 14.6948 34.8533C17.7452 34.8533 20.7956 34.7947 23.846 34.6773C26.8964 34.56 29.9469 34.5013 32.9973 34.5013C35.4611 34.5013 37.9249 34.7653 40.3887 35.2933C42.9111 35.8212 45.1989 36.7012 47.2521 37.9331C49.3639 39.165 51.0358 40.7782 52.2677 42.7727C53.5582 44.7672 54.2035 47.231 54.2035 50.164Z" fill="#222831"/>
</svg>