<svg width="102" height="88" viewBox="0 0 102 88" fill="none" xmlns="http://www.w3.org/2000/svg">
<path d="M53.7221 43.6083C53.7221 43.6687 53.7145 43.7517 53.6994 43.8573C53.6844 43.9478 53.6315 43.9931 53.541 43.9931C53.3599 43.9931 53.1789 43.9856 52.9978 43.9705C52.8318 43.9554 52.6583 43.9478 52.4772 43.9478C51.7378 43.9026 50.9834 43.8799 50.2138 43.8799C49.8819 43.8799 49.5499 43.8875 49.2179 43.9026C48.886 43.9177 48.554 43.9328 48.222 43.9478C48.0711 43.9629 47.9127 43.978 47.7467 43.9931C47.5958 44.0082 47.4374 44.0157 47.2714 44.0157C47.1507 44.0157 47.0903 43.9403 47.0903 43.7894C47.0903 43.6838 47.0979 43.5857 47.113 43.4952C47.1281 43.4046 47.2035 43.3594 47.3393 43.3594C47.4902 43.3594 47.6335 43.3669 47.7694 43.382C47.9052 43.382 48.0485 43.382 48.1994 43.382C48.3805 43.382 48.5917 43.3367 48.8331 43.2462C49.0897 43.1557 49.2179 43.0048 49.2179 42.7935V28.7378C49.2179 28.4813 49.1198 28.3153 48.9237 28.2399C48.7275 28.1494 48.4936 28.1041 48.222 28.1041C47.9655 28.1041 47.7241 28.1116 47.4977 28.1267C47.2865 28.1267 47.1658 28.089 47.1356 28.0136C47.1205 27.9834 47.113 27.9155 47.113 27.8099C47.113 27.7495 47.1205 27.6816 47.1356 27.6061C47.1507 27.5156 47.196 27.4703 47.2714 27.4703C47.7694 27.4703 48.2673 27.4854 48.7652 27.5156C49.2783 27.5458 49.7838 27.5609 50.2817 27.5609H51.3002C51.5417 27.5609 51.7831 27.5609 52.0245 27.5609C52.2811 27.5609 52.53 27.5533 52.7715 27.5382C52.8922 27.5232 53.0053 27.5156 53.111 27.5156C53.2317 27.5005 53.3448 27.493 53.4505 27.493C53.6165 27.493 53.6994 27.576 53.6994 27.742C53.6994 27.8325 53.6919 27.9155 53.6768 27.9909C53.6617 28.0664 53.5938 28.1041 53.4731 28.1041C53.292 28.1041 53.111 28.1041 52.9299 28.1041C52.7639 28.089 52.5904 28.0815 52.4093 28.0815C52.2282 28.0815 52.0321 28.1418 51.8208 28.2625C51.6247 28.3682 51.5266 28.5266 51.5266 28.7378V42.7935C51.5266 42.9897 51.6171 43.133 51.7982 43.2236C51.9793 43.3141 52.1603 43.3594 52.3414 43.3594C52.5376 43.3594 52.7262 43.3594 52.9073 43.3594C53.1034 43.3443 53.2996 43.3367 53.4957 43.3367C53.6466 43.3367 53.7221 43.4273 53.7221 43.6083ZM75.7921 27.8099C75.7921 27.8551 75.777 27.923 75.7468 28.0136C75.7167 28.089 75.6638 28.1267 75.5884 28.1267C75.4677 28.1267 75.347 28.1267 75.2263 28.1267C75.1055 28.1116 74.9848 28.1041 74.8641 28.1041C74.4567 28.1041 74.17 28.1494 74.004 28.2399C73.8531 28.3153 73.7626 28.4511 73.7324 28.6473C73.7173 28.8435 73.7098 29.1151 73.7098 29.4621V43.7441C73.7098 43.8799 73.657 43.9478 73.5513 43.9478L72.5328 43.9705C72.4725 43.6385 72.3593 43.3066 72.1933 42.9746C72.0424 42.6426 71.8613 42.3408 71.6501 42.0692C70.0205 39.9266 68.3908 37.799 66.7612 35.6865C65.1315 33.5589 63.5245 31.4162 61.9401 29.2584V42.7709C61.9401 42.9821 62.0156 43.133 62.1665 43.2236C62.3325 43.299 62.5135 43.3443 62.7097 43.3594C62.9209 43.3594 63.102 43.3594 63.2529 43.3594C63.3736 43.3594 63.4868 43.3594 63.5924 43.3594C63.7131 43.3443 63.8338 43.3367 63.9546 43.3367C64.0904 43.3367 64.1583 43.4197 64.1583 43.5857C64.1583 43.7064 64.1432 43.812 64.113 43.9026C64.0979 43.9931 64.0074 44.0384 63.8414 44.0384C63.7056 44.0384 63.5622 44.0308 63.4113 44.0157C63.2755 43.9856 63.1397 43.9629 63.0039 43.9478C62.7776 43.9177 62.5437 43.9101 62.3023 43.9252C62.0609 43.9252 61.827 43.9252 61.6006 43.9252C61.1781 43.9252 60.7632 43.9478 60.3558 43.9931C59.9634 44.0233 59.556 44.0384 59.1335 44.0384C59.0279 44.0384 58.9751 43.9705 58.9751 43.8347C58.9751 43.6083 58.9977 43.4725 59.043 43.4273C59.0883 43.382 59.2165 43.3594 59.4278 43.3594C59.5485 43.3594 59.6617 43.3669 59.7673 43.382C59.888 43.382 60.0012 43.382 60.1068 43.382C60.3482 43.382 60.5595 43.3518 60.7405 43.2915C60.9367 43.2311 61.0423 43.0576 61.0574 42.7709C61.0876 42.0466 61.0951 41.3148 61.0801 40.5754C61.065 39.836 61.0574 39.1042 61.0574 38.3799C61.0574 36.7955 61.065 35.2111 61.0801 33.6268C61.1102 32.0424 61.1253 30.4505 61.1253 28.851C61.1253 28.5794 61.0499 28.3908 60.899 28.2852C60.7632 28.1645 60.5896 28.0965 60.3784 28.0815C60.1671 28.0664 59.9559 28.0588 59.7446 28.0588C59.6692 28.0588 59.5862 28.0664 59.4957 28.0815C59.4051 28.0815 59.3221 28.0815 59.2467 28.0815C59.0505 28.0815 58.9525 28.006 58.9525 27.8551C58.9525 27.7495 58.96 27.659 58.9751 27.5835C59.0053 27.493 59.0883 27.4477 59.2241 27.4477C59.6164 27.4477 60.0087 27.4628 60.401 27.493C60.7934 27.5081 61.1857 27.5156 61.578 27.5156C61.8496 27.5156 62.1212 27.5156 62.3928 27.5156C62.6795 27.5005 62.9587 27.493 63.2303 27.493C63.7886 28.2474 64.362 28.9868 64.9505 29.7111C65.5389 30.4354 66.1274 31.1597 66.7159 31.884C67.742 33.1364 68.768 34.3888 69.7941 35.6412C70.8202 36.8785 71.8463 38.1234 72.8723 39.3758V28.6926C72.8723 28.4813 72.7592 28.3304 72.5328 28.2399C72.3065 28.1494 72.1103 28.1041 71.9443 28.1041C71.7482 28.1041 71.5596 28.1116 71.3785 28.1267C71.1974 28.1418 71.0088 28.1494 70.8126 28.1494C70.707 28.1494 70.6542 28.0739 70.6542 27.923C70.6542 27.8778 70.6542 27.8325 70.6542 27.7872C70.6542 27.7269 70.6617 27.6816 70.6768 27.6514C70.6768 27.5156 70.7598 27.4477 70.9258 27.4477C71.1371 27.4477 71.3559 27.4628 71.5822 27.493C71.8085 27.5081 72.0273 27.5156 72.2386 27.5156C72.812 27.5156 73.3778 27.5081 73.9361 27.493C74.4944 27.4779 75.0527 27.4477 75.611 27.4024C75.7016 27.4628 75.7544 27.5232 75.7695 27.5835C75.7846 27.6288 75.7921 27.7042 75.7921 27.8099ZM96.8026 37.0445C96.8026 37.135 96.7799 37.218 96.7347 37.2935C96.6894 37.3689 96.614 37.4066 96.5083 37.4066H95.105V42.2503C94.0488 42.6124 93.0001 43.0123 91.9589 43.4499C91.461 43.6611 90.9328 43.797 90.3745 43.8573C89.8313 43.9177 89.2957 43.9478 88.7675 43.9478C88.3149 43.9478 87.8094 43.895 87.2511 43.7894C86.6928 43.6838 86.1495 43.5329 85.6214 43.3367C85.1084 43.1406 84.6557 42.9142 84.2634 42.6577C83.1166 41.8882 82.2641 40.8923 81.7057 39.67C81.1625 38.4478 80.8909 37.1501 80.8909 35.777C80.8909 34.6151 81.072 33.5211 81.4341 32.4951C81.8114 31.469 82.347 30.5636 83.0411 29.779C83.7353 28.9944 84.5652 28.3832 85.5309 27.9457C86.5117 27.493 87.6057 27.2666 88.8128 27.2666C89.7031 27.2666 90.5556 27.3874 91.3704 27.6288C91.5062 27.674 91.725 27.742 92.0268 27.8325C92.3286 27.923 92.6304 28.0136 92.9322 28.1041C93.234 28.1795 93.4377 28.2173 93.5433 28.2173C93.8602 28.2173 94.079 28.1795 94.1997 28.1041C94.3204 28.0136 94.4109 27.9155 94.4713 27.8099C94.5467 27.7042 94.6524 27.6212 94.7882 27.5609H94.9692C95.0899 27.5609 95.1578 27.6288 95.1729 27.7646C95.2031 27.9155 95.2107 28.0739 95.1956 28.2399C95.1956 28.4059 95.1956 28.5719 95.1956 28.7378C95.1956 29.2056 95.2031 29.6734 95.2182 30.1411C95.2484 30.6089 95.2635 31.0842 95.2635 31.5671C95.2635 31.7482 95.2559 31.9594 95.2408 32.2008C95.2408 32.4423 95.105 32.563 94.8334 32.563C94.7429 32.563 94.6599 32.5554 94.5845 32.5403C94.5241 32.5102 94.4637 32.4574 94.4034 32.3819C94.3883 32.3517 94.3506 32.2687 94.2902 32.1329C94.2299 31.982 94.1695 31.8311 94.1091 31.6803C94.0488 31.5143 94.0035 31.4011 93.9733 31.3407C93.5659 30.4203 92.9699 29.6507 92.1853 29.0321C91.7778 28.7001 91.2573 28.4361 90.6235 28.2399C90.0049 28.0437 89.4315 27.9457 88.9033 27.9457C87.8924 27.9457 87.0323 28.1946 86.3231 28.6926C85.6139 29.1754 85.0405 29.8092 84.6029 30.5938C84.1653 31.3785 83.8484 32.2235 83.6523 33.1288C83.4561 34.0342 83.358 34.9094 83.358 35.7544C83.358 36.6446 83.4636 37.5198 83.6749 38.3799C83.8861 39.24 84.2106 40.0171 84.6482 40.7112C85.1008 41.4053 85.6893 41.9636 86.4136 42.3861C87.1379 42.7935 88.0055 42.9972 89.0165 42.9972C89.3183 42.9972 89.6804 42.967 90.1029 42.9067C90.5254 42.8463 90.9479 42.7407 91.3704 42.5898C91.7929 42.4389 92.14 42.2352 92.4116 41.9787C92.6983 41.7222 92.8416 41.3978 92.8416 41.0054V38.0178C92.8416 37.7763 92.7209 37.6254 92.4795 37.5651C92.2532 37.4896 92.057 37.4519 91.891 37.4519C91.6647 37.4519 91.4383 37.467 91.212 37.4972C90.9857 37.5123 90.7593 37.5198 90.533 37.5198C90.4123 37.5198 90.3293 37.4821 90.284 37.4066C90.2538 37.3312 90.2387 37.2407 90.2387 37.135C90.2387 37.0445 90.2538 36.9615 90.284 36.8861C90.3142 36.7955 90.3896 36.7503 90.5103 36.7503C90.7518 36.7503 90.9857 36.7578 91.212 36.7729C91.4383 36.7729 91.6722 36.7729 91.9137 36.7729H93.5207C93.7772 36.7729 94.0337 36.7729 94.2902 36.7729C94.5467 36.7729 94.8032 36.7653 95.0598 36.7503C95.3163 36.7503 95.5653 36.7427 95.8067 36.7276C96.0481 36.6974 96.2895 36.6824 96.531 36.6824C96.6215 36.6824 96.6894 36.7276 96.7347 36.8182C96.7799 36.8936 96.8026 36.969 96.8026 37.0445Z" fill="#FFD369"/>
<path d="M55.7071 62.0171C55.7071 61.142 55.609 60.2517 55.4129 59.3463C55.2318 58.441 54.93 57.6035 54.5075 56.834C54.085 56.0644 53.5192 55.4458 52.81 54.978C52.1008 54.4951 51.2256 54.2537 50.1844 54.2537C49.1735 54.2537 48.3134 54.5027 47.6042 55.0006C46.895 55.4986 46.3216 56.1474 45.884 56.9471C45.4464 57.7318 45.122 58.5843 44.9107 59.5048C44.7146 60.4101 44.6165 61.2853 44.6165 62.1303C44.6165 63.0206 44.707 63.9184 44.8881 64.8238C45.0692 65.714 45.371 66.5364 45.7935 67.2909C46.216 68.0302 46.7818 68.6263 47.491 69.0789C48.2153 69.5316 49.1131 69.758 50.1844 69.758C51.2558 69.758 52.1461 69.5241 52.8552 69.0563C53.5644 68.5885 54.1227 67.9774 54.5302 67.223C54.9527 66.4534 55.2544 65.6159 55.4355 64.7106C55.6166 63.8052 55.7071 62.9074 55.7071 62.0171ZM58.1742 61.9492C58.1742 63.6242 57.8649 65.1029 57.2462 66.3855C56.6427 67.653 55.7448 68.6413 54.5528 69.3505C53.3758 70.0597 51.9197 70.4143 50.1844 70.4143C48.4944 70.4143 47.0459 70.0748 45.8387 69.3958C44.6467 68.7017 43.7338 67.736 43.1 66.4987C42.4663 65.2463 42.1494 63.7901 42.1494 62.1303C42.1494 60.9684 42.338 59.8745 42.7152 58.8484C43.0925 57.8223 43.6357 56.917 44.3449 56.1323C45.0541 55.3477 45.8991 54.7366 46.8799 54.299C47.8758 53.8463 48.9773 53.62 50.1844 53.62C51.8744 53.62 53.3079 53.9746 54.4849 54.6838C55.6769 55.3779 56.5898 56.3511 57.2236 57.6035C57.8573 58.8409 58.1742 60.2894 58.1742 61.9492ZM80.1588 54.1405C80.1588 54.1858 80.1438 54.2537 80.1136 54.3442C80.0834 54.4197 80.0306 54.4574 79.9551 54.4574C79.8344 54.4574 79.7137 54.4574 79.593 54.4574C79.4723 54.4423 79.3516 54.4348 79.2308 54.4348C78.8234 54.4348 78.5367 54.4801 78.3708 54.5706C78.2199 54.646 78.1293 54.7818 78.0992 54.978C78.0841 55.1742 78.0765 55.4458 78.0765 55.7928V70.0748C78.0765 70.2106 78.0237 70.2785 77.9181 70.2785L76.8996 70.3012C76.8392 69.9692 76.726 69.6372 76.56 69.3053C76.4092 68.9733 76.2281 68.6715 76.0168 68.3999C74.3872 66.2572 72.7575 64.1296 71.1279 62.0171C69.4983 59.8896 67.8913 57.7469 66.3069 55.5891V69.1016C66.3069 69.3128 66.3823 69.4637 66.5332 69.5542C66.6992 69.6297 66.8803 69.675 67.0764 69.6901C67.2877 69.6901 67.4688 69.6901 67.6196 69.6901C67.7404 69.6901 67.8535 69.6901 67.9592 69.6901C68.0799 69.675 68.2006 69.6674 68.3213 69.6674C68.4571 69.6674 68.525 69.7504 68.525 69.9164C68.525 70.0371 68.5099 70.1427 68.4797 70.2333C68.4646 70.3238 68.3741 70.3691 68.2081 70.3691C68.0723 70.3691 67.929 70.3615 67.7781 70.3464C67.6423 70.3163 67.5065 70.2936 67.3707 70.2785C67.1443 70.2484 66.9104 70.2408 66.669 70.2559C66.4276 70.2559 66.1937 70.2559 65.9674 70.2559C65.5449 70.2559 65.1299 70.2785 64.7225 70.3238C64.3302 70.354 63.9228 70.3691 63.5003 70.3691C63.3946 70.3691 63.3418 70.3012 63.3418 70.1654C63.3418 69.939 63.3645 69.8032 63.4097 69.758C63.455 69.7127 63.5833 69.6901 63.7945 69.6901C63.9152 69.6901 64.0284 69.6976 64.134 69.7127C64.2547 69.7127 64.3679 69.7127 64.4735 69.7127C64.715 69.7127 64.9262 69.6825 65.1073 69.6221C65.3034 69.5618 65.4091 69.3883 65.4242 69.1016C65.4543 68.3773 65.4619 67.6455 65.4468 66.9061C65.4317 66.1667 65.4242 65.4349 65.4242 64.7106C65.4242 63.1262 65.4317 61.5418 65.4468 59.9575C65.477 58.3731 65.4921 56.7812 65.4921 55.1817C65.4921 54.9101 65.4166 54.7215 65.2657 54.6159C65.1299 54.4951 64.9564 54.4272 64.7451 54.4121C64.5339 54.3971 64.3226 54.3895 64.1114 54.3895C64.0359 54.3895 63.9529 54.3971 63.8624 54.4121C63.7719 54.4121 63.6889 54.4121 63.6134 54.4121C63.4173 54.4121 63.3192 54.3367 63.3192 54.1858C63.3192 54.0802 63.3267 53.9896 63.3418 53.9142C63.372 53.8237 63.455 53.7784 63.5908 53.7784C63.9831 53.7784 64.3754 53.7935 64.7678 53.8237C65.1601 53.8388 65.5524 53.8463 65.9447 53.8463C66.2163 53.8463 66.4879 53.8463 66.7596 53.8463C67.0462 53.8312 67.3254 53.8237 67.597 53.8237C68.1553 54.5781 68.7287 55.3175 69.3172 56.0418C69.9057 56.7661 70.4942 57.4904 71.0826 58.2146C72.1087 59.4671 73.1348 60.7195 74.1608 61.9719C75.1869 63.2092 76.213 64.4541 77.2391 65.7065V55.0233C77.2391 54.812 77.1259 54.6611 76.8996 54.5706C76.6732 54.4801 76.4771 54.4348 76.3111 54.4348C76.1149 54.4348 75.9263 54.4423 75.7452 54.4574C75.5642 54.4725 75.3755 54.48 75.1794 54.48C75.0738 54.48 75.0209 54.4046 75.0209 54.2537C75.0209 54.2084 75.0209 54.1632 75.0209 54.1179C75.0209 54.0576 75.0285 54.0123 75.0436 53.9821C75.0436 53.8463 75.1266 53.7784 75.2925 53.7784C75.5038 53.7784 75.7226 53.7935 75.9489 53.8237C76.1753 53.8388 76.3941 53.8463 76.6053 53.8463C77.1787 53.8463 77.7446 53.8388 78.3029 53.8237C78.8612 53.8086 79.4195 53.7784 79.9778 53.7331C80.0683 53.7935 80.1211 53.8538 80.1362 53.9142C80.1513 53.9595 80.1588 54.0349 80.1588 54.1405ZM101.169 63.3752C101.169 63.4657 101.147 63.5487 101.101 63.6242C101.056 63.6996 100.981 63.7373 100.875 63.7373H99.4718V68.581C98.4155 68.9431 97.3668 69.343 96.3257 69.7806C95.8277 69.9918 95.2996 70.1276 94.7413 70.188C94.1981 70.2484 93.6624 70.2785 93.1343 70.2785C92.6816 70.2785 92.1761 70.2257 91.6178 70.1201C91.0595 70.0145 90.5163 69.8636 89.9882 69.6674C89.4751 69.4713 89.0224 69.2449 88.6301 68.9884C87.4833 68.2188 86.6308 67.223 86.0725 66.0007C85.5293 64.7785 85.2577 63.4808 85.2577 62.1077C85.2577 60.9458 85.4387 59.8518 85.8009 58.8258C86.1781 57.7997 86.7138 56.8943 87.4079 56.1097C88.102 55.325 88.9319 54.7139 89.8976 54.2763C90.8784 53.8237 91.9724 53.5973 93.1795 53.5973C94.0698 53.5973 94.9224 53.718 95.7372 53.9595C95.873 54.0047 96.0918 54.0726 96.3936 54.1632C96.6953 54.2537 96.9971 54.3442 97.2989 54.4348C97.6007 54.5102 97.8044 54.548 97.91 54.548C98.2269 54.548 98.4457 54.5102 98.5664 54.4348C98.6871 54.3442 98.7777 54.2462 98.838 54.1405C98.9135 54.0349 99.0191 53.9519 99.1549 53.8916H99.336C99.4567 53.8916 99.5246 53.9595 99.5397 54.0953C99.5699 54.2462 99.5774 54.4046 99.5623 54.5706C99.5623 54.7366 99.5623 54.9025 99.5623 55.0685C99.5623 55.5363 99.5699 56.0041 99.5849 56.4718C99.6151 56.9396 99.6302 57.4149 99.6302 57.8978C99.6302 58.0788 99.6227 58.2901 99.6076 58.5315C99.6076 58.773 99.4718 58.8937 99.2002 58.8937C99.1096 58.8937 99.0266 58.8861 98.9512 58.871C98.8908 58.8409 98.8305 58.788 98.7701 58.7126C98.755 58.6824 98.7173 58.5994 98.657 58.4636C98.5966 58.3127 98.5362 58.1618 98.4759 58.0109C98.4155 57.845 98.3703 57.7318 98.3401 57.6714C97.9327 56.751 97.3366 55.9814 96.552 55.3628C96.1446 55.0308 95.624 54.7667 94.9903 54.5706C94.3716 54.3744 93.7982 54.2763 93.2701 54.2763C92.2591 54.2763 91.399 54.5253 90.6898 55.0233C89.9806 55.5061 89.4072 56.1399 88.9696 56.9245C88.532 57.7092 88.2152 58.5542 88.019 59.4595C87.8228 60.3649 87.7248 61.2401 87.7248 62.0851C87.7248 62.9753 87.8304 63.8505 88.0416 64.7106C88.2529 65.5707 88.5773 66.3478 89.0149 67.0419C89.4676 67.736 90.0561 68.2943 90.7803 68.7168C91.5046 69.1242 92.3723 69.3279 93.3832 69.3279C93.685 69.3279 94.0472 69.2977 94.4697 69.2374C94.8922 69.177 95.3147 69.0714 95.7372 68.9205C96.1597 68.7696 96.5067 68.5659 96.7783 68.3094C97.065 68.0529 97.2084 67.7284 97.2084 67.3361V64.3484C97.2084 64.107 97.0877 63.9561 96.8462 63.8958C96.6199 63.8203 96.4237 63.7826 96.2578 63.7826C96.0314 63.7826 95.8051 63.7977 95.5787 63.8279C95.3524 63.843 95.1261 63.8505 94.8997 63.8505C94.779 63.8505 94.696 63.8128 94.6507 63.7373C94.6206 63.6619 94.6055 63.5713 94.6055 63.4657C94.6055 63.3752 94.6206 63.2922 94.6507 63.2167C94.6809 63.1262 94.7564 63.0809 94.8771 63.0809C95.1185 63.0809 95.3524 63.0885 95.5787 63.1036C95.8051 63.1036 96.039 63.1036 96.2804 63.1036H97.8874C98.1439 63.1036 98.4004 63.1036 98.657 63.1036C98.9135 63.1036 99.17 63.096 99.4265 63.0809C99.683 63.0809 99.932 63.0734 100.173 63.0583C100.415 63.0281 100.656 63.013 100.898 63.013C100.988 63.013 101.056 63.0583 101.101 63.1488C101.147 63.2243 101.169 63.2997 101.169 63.3752Z" fill="#FFD369"/>
<path d="M30.8515 37.3438C30.8515 34.092 29.8353 31.7345 27.8029 30.2712C25.8112 28.7672 23.3114 28.0152 20.3035 28.0152C19.4905 28.0152 18.6572 28.0355 17.8036 28.0762C16.95 28.0762 16.0964 28.0762 15.2428 28.0762C14.8364 28.0762 14.4299 28.1981 14.0234 28.442C13.6169 28.6859 13.4137 29.0314 13.4137 29.4785V46.7944C14.3079 47.4447 15.4054 47.8309 16.7061 47.9528C18.0069 48.0748 19.1653 48.1358 20.1815 48.1358C23.6772 48.1358 26.3193 47.2009 28.1078 45.3311C29.9369 43.4613 30.8515 40.7989 30.8515 37.3438ZM37.5583 37.1609C37.5583 39.803 37.0502 41.9573 36.0341 43.6239C35.0585 45.2904 33.7375 46.5911 32.0709 47.526C30.4044 48.4609 28.5143 49.1113 26.4006 49.4771C24.3276 49.8023 22.1936 49.9649 19.9986 49.9649C18.9011 49.9649 17.8036 49.9039 16.7061 49.782C15.6087 49.66 14.5315 49.5178 13.4747 49.3552V67.5856C13.4747 68.1953 13.7389 68.6018 14.2673 68.805C14.7957 69.0083 15.3851 69.1099 16.0355 69.1099C16.6858 69.1099 17.2142 69.1099 17.6207 69.1099C17.8646 69.1099 18.1085 69.1099 18.3524 69.1099C18.6369 69.0692 18.9011 69.0489 19.145 69.0489C19.5108 69.0489 19.6937 69.2115 19.6937 69.5367C19.6937 70.0651 19.6531 70.4309 19.5718 70.6342C19.4905 70.7968 19.1653 70.8781 18.5963 70.8781C17.2142 70.8781 15.8525 70.8374 14.5112 70.7561C13.1698 70.6748 11.8284 70.6342 10.4871 70.6342C9.10505 70.6342 7.70271 70.6951 6.28005 70.8171C4.89803 70.8984 3.51601 70.939 2.134 70.939C1.72752 70.939 1.52428 70.6748 1.52428 70.1464C1.52428 69.9025 1.56493 69.679 1.64623 69.4757C1.72752 69.2725 1.93076 69.1709 2.25594 69.1709C2.74371 69.1709 3.23148 69.1912 3.71925 69.2318C4.20702 69.2318 4.69479 69.2318 5.18256 69.2318C5.67033 69.2318 6.09713 69.1099 6.46296 68.866C6.86944 68.6221 7.093 68.236 7.13365 67.7075C7.21494 66.9759 7.23526 66.2442 7.19462 65.5126C7.19462 64.7403 7.19462 63.9883 7.19462 63.2566C7.19462 61.7933 7.19462 60.33 7.19462 58.8667C7.19462 57.3627 7.19462 55.8791 7.19462 54.4158V43.7458C7.19462 41.3476 7.17429 38.9697 7.13365 36.6122C7.13365 34.214 7.13365 31.8361 7.13365 29.4785C7.13365 28.7469 6.76782 28.3201 6.03616 28.1981C5.34515 28.0355 4.73544 27.9542 4.20702 27.9542C3.84119 27.9542 3.47537 27.9746 3.10954 28.0152C2.74371 28.0152 2.39821 28.0152 2.07303 28.0152C1.78849 28.0152 1.6259 27.8933 1.58525 27.6494C1.58525 27.3649 1.58525 27.1413 1.58525 26.9787C1.58525 26.8161 1.6259 26.6738 1.7072 26.5519C1.78849 26.3893 1.91043 26.308 2.07303 26.308C3.41439 26.308 4.75576 26.3487 6.09713 26.43C7.4385 26.5113 8.80019 26.5519 10.1822 26.5519C12.2959 26.5519 14.4096 26.5113 16.5232 26.43C18.6369 26.3487 20.7506 26.308 22.8642 26.308C24.5714 26.308 26.2786 26.4909 27.9858 26.8568C29.7337 27.2226 31.3189 27.8323 32.7416 28.6859C34.2049 29.5395 35.3634 30.6573 36.217 32.0393C37.1112 33.4213 37.5583 35.1285 37.5583 37.1609Z" fill="#FFD369"/>
</svg>
