<svg width="79" height="67" viewBox="0 0 79 67" fill="none" xmlns="http://www.w3.org/2000/svg">
<path d="M40.902 33.4064C40.902 33.4523 40.8962 33.5155 40.8847 33.5959C40.8733 33.6649 40.833 33.6993 40.7641 33.6993C40.6263 33.6993 40.4884 33.6936 40.3505 33.6821C40.2242 33.6706 40.092 33.6649 39.9542 33.6649C39.3912 33.6304 38.8168 33.6132 38.2309 33.6132C37.9782 33.6132 37.7254 33.6189 37.4727 33.6304C37.2199 33.6419 36.9672 33.6534 36.7144 33.6649C36.5996 33.6763 36.4789 33.6878 36.3526 33.6993C36.2377 33.7108 36.117 33.7166 35.9907 33.7166C35.8988 33.7166 35.8528 33.6591 35.8528 33.5442C35.8528 33.4638 35.8586 33.3891 35.87 33.3202C35.8815 33.2513 35.939 33.2168 36.0424 33.2168C36.1573 33.2168 36.2664 33.2226 36.3698 33.234C36.4732 33.234 36.5823 33.234 36.6972 33.234C36.8351 33.234 36.9959 33.1996 37.1797 33.1306C37.375 33.0617 37.4727 32.9468 37.4727 32.786V22.0845C37.4727 21.8892 37.398 21.7628 37.2487 21.7054C37.0993 21.6365 36.9212 21.602 36.7144 21.602C36.5191 21.602 36.3353 21.6077 36.163 21.6192C36.0022 21.6192 35.9102 21.5905 35.8873 21.5331C35.8758 21.5101 35.87 21.4584 35.87 21.378C35.87 21.332 35.8758 21.2803 35.8873 21.2229C35.8988 21.154 35.9332 21.1195 35.9907 21.1195C36.3698 21.1195 36.7489 21.131 37.128 21.1539C37.5186 21.1769 37.9035 21.1884 38.2826 21.1884H39.0581C39.2419 21.1884 39.4257 21.1884 39.6095 21.1884C39.8048 21.1884 39.9944 21.1827 40.1782 21.1712C40.2701 21.1597 40.3563 21.1539 40.4367 21.1539C40.5286 21.1425 40.6148 21.1367 40.6952 21.1367C40.8216 21.1367 40.8847 21.1999 40.8847 21.3263C40.8847 21.3952 40.879 21.4584 40.8675 21.5158C40.856 21.5733 40.8043 21.602 40.7124 21.602C40.5746 21.602 40.4367 21.602 40.2988 21.602C40.1725 21.5905 40.0403 21.5848 39.9025 21.5848C39.7646 21.5848 39.6153 21.6307 39.4544 21.7226C39.3051 21.803 39.2304 21.9237 39.2304 22.0845V32.786C39.2304 32.9353 39.2993 33.0445 39.4372 33.1134C39.5751 33.1823 39.7129 33.2168 39.8508 33.2168C40.0001 33.2168 40.1437 33.2168 40.2816 33.2168C40.4309 33.2053 40.5803 33.1996 40.7296 33.1996C40.8445 33.1996 40.902 33.2685 40.902 33.4064ZM57.7053 21.378C57.7053 21.4124 57.6938 21.4641 57.6708 21.5331C57.6478 21.5905 57.6076 21.6192 57.5502 21.6192C57.4583 21.6192 57.3664 21.6192 57.2745 21.6192C57.1826 21.6077 57.0907 21.602 56.9988 21.602C56.6886 21.602 56.4703 21.6365 56.3439 21.7054C56.229 21.7628 56.1601 21.8662 56.1371 22.0156C56.1256 22.1649 56.1199 22.3717 56.1199 22.636V33.5098C56.1199 33.6132 56.0797 33.6649 55.9993 33.6649L55.2238 33.6821C55.1778 33.4293 55.0917 33.1766 54.9653 32.9239C54.8504 32.6711 54.7126 32.4413 54.5517 32.2345C53.311 30.6032 52.0702 28.9833 50.8295 27.3749C49.5887 25.7551 48.3652 24.1237 47.1589 22.4809V32.7688C47.1589 32.9296 47.2163 33.0445 47.3312 33.1134C47.4576 33.1709 47.5955 33.2053 47.7448 33.2168C47.9057 33.2168 48.0435 33.2168 48.1584 33.2168C48.2503 33.2168 48.3365 33.2168 48.4169 33.2168C48.5088 33.2053 48.6007 33.1996 48.6926 33.1996C48.796 33.1996 48.8477 33.2628 48.8477 33.3891C48.8477 33.481 48.8362 33.5615 48.8132 33.6304C48.8018 33.6993 48.7328 33.7338 48.6064 33.7338C48.5031 33.7338 48.3939 33.728 48.279 33.7166C48.1756 33.6936 48.0722 33.6763 47.9688 33.6649C47.7965 33.6419 47.6184 33.6361 47.4346 33.6476C47.2508 33.6476 47.0727 33.6476 46.9004 33.6476C46.5787 33.6476 46.2628 33.6649 45.9526 33.6993C45.6539 33.7223 45.3437 33.7338 45.0221 33.7338C44.9416 33.7338 44.9014 33.6821 44.9014 33.5787C44.9014 33.4064 44.9187 33.303 44.9531 33.2685C44.9876 33.234 45.0852 33.2168 45.2461 33.2168C45.338 33.2168 45.4242 33.2226 45.5046 33.234C45.5965 33.234 45.6826 33.234 45.7631 33.234C45.9469 33.234 46.1077 33.2111 46.2456 33.1651C46.3949 33.1192 46.4753 32.987 46.4868 32.7688C46.5098 32.2173 46.5156 31.6601 46.5041 31.0972C46.4926 30.5343 46.4868 29.9771 46.4868 29.4256C46.4868 28.2193 46.4926 27.0131 46.5041 25.8068C46.527 24.6005 46.5385 23.3885 46.5385 22.1707C46.5385 21.9639 46.4811 21.8203 46.3662 21.7399C46.2628 21.648 46.1307 21.5963 45.9699 21.5848C45.809 21.5733 45.6482 21.5675 45.4873 21.5675C45.4299 21.5675 45.3667 21.5733 45.2978 21.5848C45.2288 21.5848 45.1657 21.5848 45.1082 21.5848C44.9589 21.5848 44.8842 21.5273 44.8842 21.4124C44.8842 21.332 44.8899 21.2631 44.9014 21.2056C44.9244 21.1367 44.9876 21.1023 45.091 21.1023C45.3897 21.1023 45.6884 21.1137 45.9871 21.1367C46.2858 21.1482 46.5845 21.1539 46.8832 21.1539C47.09 21.1539 47.2968 21.1539 47.5036 21.1539C47.7218 21.1425 47.9344 21.1367 48.1412 21.1367C48.5662 21.7111 49.0028 22.2741 49.4508 22.8255C49.8989 23.377 50.3469 23.9284 50.795 24.4799C51.5762 25.4334 52.3574 26.3869 53.1386 27.3405C53.9198 28.2825 54.7011 29.2303 55.4823 30.1839V22.05C55.4823 21.8892 55.3961 21.7743 55.2238 21.7054C55.0515 21.6365 54.9021 21.602 54.7757 21.602C54.6264 21.602 54.4828 21.6077 54.3449 21.6192C54.2071 21.6307 54.0635 21.6365 53.9141 21.6365C53.8337 21.6365 53.7935 21.579 53.7935 21.4641C53.7935 21.4297 53.7935 21.3952 53.7935 21.3607C53.7935 21.3148 53.7992 21.2803 53.8107 21.2573C53.8107 21.1539 53.8739 21.1023 54.0003 21.1023C54.1611 21.1023 54.3277 21.1137 54.5 21.1367C54.6723 21.1482 54.8389 21.1539 54.9998 21.1539C55.4363 21.1539 55.8671 21.1482 56.2922 21.1367C56.7173 21.1252 57.1424 21.1023 57.5674 21.0678C57.6364 21.1137 57.6766 21.1597 57.6881 21.2056C57.6995 21.2401 57.7053 21.2976 57.7053 21.378ZM73.7019 28.4089C73.7019 28.4778 73.6847 28.541 73.6502 28.5985C73.6157 28.6559 73.5583 28.6846 73.4779 28.6846H72.4095V32.3724C71.6053 32.6481 70.8068 32.9526 70.0141 33.2857C69.635 33.4466 69.2329 33.55 68.8078 33.5959C68.3942 33.6419 67.9864 33.6649 67.5843 33.6649C67.2397 33.6649 66.8548 33.6246 66.4297 33.5442C66.0046 33.4638 65.5911 33.3489 65.189 33.1996C64.7984 33.0502 64.4537 32.8779 64.155 32.6826C63.2819 32.0967 62.6328 31.3384 62.2077 30.4079C61.7941 29.4773 61.5873 28.4893 61.5873 27.4439C61.5873 26.5593 61.7252 25.7263 62.0009 24.9451C62.2881 24.1639 62.696 23.4746 63.2244 22.8772C63.7529 22.2798 64.3848 21.8145 65.12 21.4814C65.8668 21.1367 66.6997 20.9644 67.6188 20.9644C68.2966 20.9644 68.9457 21.0563 69.5661 21.2401C69.6695 21.2746 69.836 21.3263 70.0658 21.3952C70.2956 21.4641 70.5253 21.5331 70.7551 21.602C70.9849 21.6594 71.14 21.6882 71.2204 21.6882C71.4617 21.6882 71.6282 21.6594 71.7201 21.602C71.8121 21.5331 71.881 21.4584 71.9269 21.378C71.9844 21.2976 72.0648 21.2344 72.1682 21.1884H72.3061C72.398 21.1884 72.4497 21.2401 72.4611 21.3435C72.4841 21.4584 72.4899 21.579 72.4784 21.7054C72.4784 21.8318 72.4784 21.9581 72.4784 22.0845C72.4784 22.4407 72.4841 22.7968 72.4956 23.1529C72.5186 23.5091 72.5301 23.871 72.5301 24.2386C72.5301 24.3765 72.5243 24.5373 72.5128 24.7211C72.5128 24.9049 72.4095 24.9968 72.2027 24.9968C72.1337 24.9968 72.0705 24.9911 72.0131 24.9796C71.9671 24.9566 71.9212 24.9164 71.8752 24.859C71.8638 24.836 71.835 24.7728 71.7891 24.6694C71.7431 24.5545 71.6972 24.4396 71.6512 24.3248C71.6053 24.1984 71.5708 24.1122 71.5478 24.0663C71.2376 23.3655 70.7838 22.7796 70.1864 22.3085C69.8763 22.0558 69.4799 21.8547 68.9974 21.7054C68.5264 21.556 68.0898 21.4814 67.6877 21.4814C66.918 21.4814 66.2631 21.6709 65.7232 22.05C65.1832 22.4177 64.7467 22.9002 64.4135 23.4976C64.0803 24.095 63.8391 24.7383 63.6897 25.4276C63.5404 26.117 63.4657 26.7833 63.4657 27.4266C63.4657 28.1045 63.5461 28.7708 63.707 29.4256C63.8678 30.0805 64.1148 30.6721 64.448 31.2006C64.7926 31.7291 65.2407 32.1541 65.7921 32.4758C66.3436 32.786 67.0041 32.9411 67.7739 32.9411C68.0036 32.9411 68.2794 32.9181 68.601 32.8722C68.9227 32.8262 69.2444 32.7458 69.5661 32.6309C69.8877 32.516 70.152 32.3609 70.3588 32.1656C70.577 31.9703 70.6862 31.7233 70.6862 31.4246V29.1499C70.6862 28.9661 70.5943 28.8512 70.4105 28.8052C70.2381 28.7478 70.0888 28.7191 69.9624 28.7191C69.7901 28.7191 69.6178 28.7306 69.4454 28.7535C69.2731 28.765 69.1008 28.7708 68.9285 28.7708C68.8365 28.7708 68.7734 28.7421 68.7389 28.6846C68.7159 28.6272 68.7044 28.5582 68.7044 28.4778C68.7044 28.4089 68.7159 28.3457 68.7389 28.2883C68.7619 28.2193 68.8193 28.1849 68.9112 28.1849C69.095 28.1849 69.2731 28.1906 69.4454 28.2021C69.6178 28.2021 69.7958 28.2021 69.9796 28.2021H71.2032C71.3985 28.2021 71.5938 28.2021 71.7891 28.2021C71.9844 28.2021 72.1797 28.1964 72.375 28.1849C72.5703 28.1849 72.7598 28.1791 72.9437 28.1676C73.1275 28.1447 73.3113 28.1332 73.4951 28.1332C73.564 28.1332 73.6157 28.1676 73.6502 28.2366C73.6847 28.294 73.7019 28.3515 73.7019 28.4089Z" fill="#FFD369"/>
<path d="M42.4134 47.4222C42.4134 46.7558 42.3387 46.078 42.1893 45.3887C42.0515 44.6994 41.8217 44.0618 41.5 43.4759C41.1784 42.89 40.7475 42.419 40.2076 42.0628C39.6676 41.6952 39.0013 41.5114 38.2086 41.5114C37.4389 41.5114 36.784 41.7009 36.2441 42.0801C35.7041 42.4592 35.2676 42.9532 34.9344 43.5621C34.6012 44.1595 34.3542 44.8086 34.1934 45.5094C34.044 46.1987 33.9694 46.865 33.9694 47.5083C33.9694 48.1862 34.0383 48.8697 34.1762 49.559C34.314 50.2368 34.5438 50.863 34.8655 51.4374C35.1871 52.0003 35.618 52.4541 36.1579 52.7988C36.7094 53.1434 37.3929 53.3157 38.2086 53.3157C39.0243 53.3157 39.7021 53.1377 40.242 52.7815C40.782 52.4254 41.2071 51.9601 41.5173 51.3857C41.8389 50.7998 42.0687 50.1622 42.2066 49.4729C42.3444 48.7836 42.4134 48.1 42.4134 47.4222ZM44.2917 47.3705C44.2917 48.6457 44.0562 49.7716 43.5852 50.7481C43.1256 51.7131 42.4421 52.4656 41.5345 53.0056C40.6384 53.5455 39.5298 53.8155 38.2086 53.8155C36.9219 53.8155 35.819 53.557 34.8999 53.04C33.9923 52.5116 33.2973 51.7763 32.8148 50.8342C32.3323 49.8807 32.091 48.7721 32.091 47.5083C32.091 46.6237 32.2346 45.7908 32.5218 45.0096C32.809 44.2284 33.2226 43.5391 33.7626 42.9417C34.3025 42.3443 34.9459 41.879 35.6926 41.5458C36.4509 41.2012 37.2895 41.0289 38.2086 41.0289C39.4953 41.0289 40.5867 41.2988 41.4828 41.8388C42.3904 42.3673 43.0854 43.1083 43.568 44.0618C44.0505 45.0039 44.2917 46.1068 44.2917 47.3705ZM61.03 41.4252C61.03 41.4597 61.0185 41.5114 60.9955 41.5803C60.9726 41.6378 60.9324 41.6665 60.8749 41.6665C60.783 41.6665 60.6911 41.6665 60.5992 41.6665C60.5073 41.655 60.4154 41.6492 60.3235 41.6492C60.0133 41.6492 59.795 41.6837 59.6686 41.7526C59.5537 41.8101 59.4848 41.9135 59.4618 42.0628C59.4504 42.2122 59.4446 42.419 59.4446 42.6832V53.557C59.4446 53.6604 59.4044 53.7121 59.324 53.7121L58.5485 53.7293C58.5026 53.4766 58.4164 53.2238 58.29 52.9711C58.1751 52.7183 58.0373 52.4886 57.8764 52.2818C56.6357 50.6504 55.3949 49.0306 54.1542 47.4222C52.9134 45.8023 51.6899 44.171 50.4836 42.5281V52.816C50.4836 52.9768 50.5411 53.0917 50.656 53.1607C50.7823 53.2181 50.9202 53.2526 51.0695 53.264C51.2304 53.264 51.3682 53.264 51.4831 53.264C51.575 53.264 51.6612 53.264 51.7416 53.264C51.8335 53.2526 51.9254 53.2468 52.0173 53.2468C52.1207 53.2468 52.1724 53.31 52.1724 53.4364C52.1724 53.5283 52.1609 53.6087 52.138 53.6776C52.1265 53.7466 52.0575 53.781 51.9312 53.781C51.8278 53.781 51.7186 53.7753 51.6038 53.7638C51.5004 53.7408 51.397 53.7236 51.2936 53.7121C51.1212 53.6891 50.9432 53.6834 50.7594 53.6949C50.5755 53.6949 50.3975 53.6949 50.2251 53.6949C49.9035 53.6949 49.5875 53.7121 49.2773 53.7466C48.9786 53.7695 48.6685 53.781 48.3468 53.781C48.2664 53.781 48.2262 53.7293 48.2262 53.6259C48.2262 53.4536 48.2434 53.3502 48.2778 53.3157C48.3123 53.2813 48.41 53.264 48.5708 53.264C48.6627 53.264 48.7489 53.2698 48.8293 53.2813C48.9212 53.2813 49.0074 53.2813 49.0878 53.2813C49.2716 53.2813 49.4324 53.2583 49.5703 53.2123C49.7196 53.1664 49.8001 53.0343 49.8116 52.816C49.8345 52.2646 49.8403 51.7074 49.8288 51.1444C49.8173 50.5815 49.8116 50.0243 49.8116 49.4729C49.8116 48.2666 49.8173 47.0603 49.8288 45.854C49.8518 44.6477 49.8633 43.4357 49.8633 42.2179C49.8633 42.0111 49.8058 41.8675 49.6909 41.7871C49.5875 41.6952 49.4554 41.6435 49.2946 41.632C49.1337 41.6205 48.9729 41.6148 48.8121 41.6148C48.7546 41.6148 48.6914 41.6205 48.6225 41.632C48.5536 41.632 48.4904 41.632 48.4329 41.632C48.2836 41.632 48.2089 41.5746 48.2089 41.4597C48.2089 41.3793 48.2147 41.3103 48.2262 41.2529C48.2491 41.184 48.3123 41.1495 48.4157 41.1495C48.7144 41.1495 49.0131 41.161 49.3118 41.184C49.6105 41.1954 49.9092 41.2012 50.2079 41.2012C50.4147 41.2012 50.6215 41.2012 50.8283 41.2012C51.0466 41.1897 51.2591 41.184 51.4659 41.184C51.891 41.7584 52.3275 42.3213 52.7756 42.8728C53.2236 43.4242 53.6717 43.9756 54.1197 44.5271C54.9009 45.4806 55.6821 46.4342 56.4634 47.3877C57.2446 48.3298 58.0258 49.2776 58.807 50.2311V42.0973C58.807 41.9365 58.7208 41.8216 58.5485 41.7526C58.3762 41.6837 58.2268 41.6492 58.1005 41.6492C57.9511 41.6492 57.8075 41.655 57.6696 41.6665C57.5318 41.678 57.3882 41.6837 57.2388 41.6837C57.1584 41.6837 57.1182 41.6263 57.1182 41.5114C57.1182 41.4769 57.1182 41.4424 57.1182 41.408C57.1182 41.362 57.1239 41.3276 57.1354 41.3046C57.1354 41.2012 57.1986 41.1495 57.325 41.1495C57.4858 41.1495 57.6524 41.161 57.8247 41.184C57.9971 41.1954 58.1636 41.2012 58.3245 41.2012C58.761 41.2012 59.1919 41.1954 59.6169 41.184C60.042 41.1725 60.4671 41.1495 60.8921 41.115C60.9611 41.161 61.0013 41.2069 61.0128 41.2529C61.0243 41.2874 61.03 41.3448 61.03 41.4252ZM77.0266 48.4561C77.0266 48.5251 77.0094 48.5883 76.9749 48.6457C76.9405 48.7031 76.883 48.7319 76.8026 48.7319H75.7342V52.4196C74.93 52.6954 74.1315 52.9998 73.3388 53.333C72.9597 53.4938 72.5576 53.5972 72.1325 53.6432C71.719 53.6891 71.3111 53.7121 70.909 53.7121C70.5644 53.7121 70.1795 53.6719 69.7544 53.5915C69.3294 53.511 68.9158 53.3962 68.5137 53.2468C68.1231 53.0975 67.7784 52.9251 67.4797 52.7298C66.6066 52.1439 65.9575 51.3857 65.5324 50.4551C65.1189 49.5246 64.9121 48.5366 64.9121 47.4911C64.9121 46.6065 65.0499 45.7736 65.3257 44.9924C65.6129 44.2112 66.0207 43.5219 66.5492 42.9245C67.0776 42.3271 67.7095 41.8618 68.4448 41.5286C69.1915 41.184 70.0244 41.0116 70.9435 41.0116C71.6213 41.0116 72.2704 41.1035 72.8908 41.2874C72.9942 41.3218 73.1608 41.3735 73.3905 41.4424C73.6203 41.5114 73.8501 41.5803 74.0798 41.6492C74.3096 41.7067 74.4647 41.7354 74.5451 41.7354C74.7864 41.7354 74.953 41.7067 75.0449 41.6492C75.1368 41.5803 75.2057 41.5056 75.2517 41.4252C75.3091 41.3448 75.3895 41.2816 75.4929 41.2357H75.6308C75.7227 41.2357 75.7744 41.2874 75.7859 41.3907C75.8088 41.5056 75.8146 41.6263 75.8031 41.7526C75.8031 41.879 75.8031 42.0054 75.8031 42.1318C75.8031 42.4879 75.8088 42.844 75.8203 43.2002C75.8433 43.5563 75.8548 43.9182 75.8548 44.2858C75.8548 44.4237 75.8491 44.5845 75.8376 44.7683C75.8376 44.9522 75.7342 45.0441 75.5274 45.0441C75.4585 45.0441 75.3953 45.0383 75.3378 45.0268C75.2919 45.0039 75.2459 44.9637 75.2 44.9062C75.1885 44.8832 75.1598 44.82 75.1138 44.7167C75.0678 44.6018 75.0219 44.4869 74.9759 44.372C74.93 44.2456 74.8955 44.1595 74.8725 44.1135C74.5624 43.4127 74.1086 42.8268 73.5112 42.3558C73.201 42.103 72.8046 41.902 72.3221 41.7526C71.8511 41.6033 71.4145 41.5286 71.0124 41.5286C70.2427 41.5286 69.5879 41.7182 69.0479 42.0973C68.5079 42.4649 68.0714 42.9474 67.7382 43.5448C67.4051 44.1422 67.1638 44.7856 67.0145 45.4749C66.8651 46.1642 66.7904 46.8305 66.7904 47.4739C66.7904 48.1517 66.8708 48.818 67.0317 49.4729C67.1925 50.1277 67.4395 50.7194 67.7727 51.2478C68.1173 51.7763 68.5654 52.2014 69.1168 52.523C69.6683 52.8332 70.3289 52.9883 71.0986 52.9883C71.3284 52.9883 71.6041 52.9653 71.9258 52.9194C72.2474 52.8734 72.5691 52.793 72.8908 52.6781C73.2125 52.5633 73.4767 52.4082 73.6835 52.2129C73.9018 52.0176 74.0109 51.7706 74.0109 51.4719V49.1971C74.0109 49.0133 73.919 48.8984 73.7352 48.8525C73.5629 48.795 73.4135 48.7663 73.2871 48.7663C73.1148 48.7663 72.9425 48.7778 72.7702 48.8008C72.5978 48.8123 72.4255 48.818 72.2532 48.818C72.1613 48.818 72.0981 48.7893 72.0636 48.7319C72.0406 48.6744 72.0292 48.6055 72.0292 48.5251C72.0292 48.4561 72.0406 48.393 72.0636 48.3355C72.0866 48.2666 72.144 48.2321 72.2359 48.2321C72.4198 48.2321 72.5978 48.2379 72.7702 48.2493C72.9425 48.2493 73.1206 48.2493 73.3044 48.2493H74.5279C74.7232 48.2493 74.9185 48.2493 75.1138 48.2493C75.3091 48.2493 75.5044 48.2436 75.6997 48.2321C75.895 48.2321 76.0846 48.2264 76.2684 48.2149C76.4522 48.1919 76.636 48.1804 76.8198 48.1804C76.8888 48.1804 76.9405 48.2149 76.9749 48.2838C77.0094 48.3413 77.0266 48.3987 77.0266 48.4561Z" fill="#FFD369"/>
<path d="M23.4892 28.3754C23.4892 25.8996 22.7155 24.1046 21.1681 22.9905C19.6517 21.8455 17.7484 21.2729 15.4583 21.2729C14.8394 21.2729 14.2049 21.2884 13.555 21.3194C12.9051 21.3194 12.2552 21.3194 11.6053 21.3194C11.2959 21.3194 10.9864 21.4122 10.6769 21.5979C10.3674 21.7836 10.2127 22.0466 10.2127 22.3871V35.5707C10.8935 36.0659 11.7291 36.3599 12.7195 36.4527C13.7098 36.5456 14.5918 36.592 15.3655 36.592C18.027 36.592 20.0385 35.8802 21.4002 34.4566C22.7929 33.033 23.4892 31.006 23.4892 28.3754ZM28.5956 28.2362C28.5956 30.2477 28.2087 31.888 27.435 33.1568C26.6923 34.4257 25.6865 35.416 24.4176 36.1278C23.1488 36.8396 21.7097 37.3347 20.1004 37.6133C18.5221 37.8608 16.8974 37.9846 15.2262 37.9846C14.3906 37.9846 13.555 37.9382 12.7195 37.8454C11.8839 37.7525 11.0638 37.6442 10.2591 37.5204V51.4004C10.2591 51.8646 10.4603 52.1741 10.8626 52.3288C11.2649 52.4836 11.7137 52.5609 12.2088 52.5609C12.704 52.5609 13.1063 52.5609 13.4158 52.5609C13.6015 52.5609 13.7871 52.5609 13.9728 52.5609C14.1895 52.53 14.3906 52.5145 14.5763 52.5145C14.8548 52.5145 14.9941 52.6383 14.9941 52.8859C14.9941 53.2882 14.9631 53.5667 14.9013 53.7215C14.8394 53.8453 14.5918 53.9072 14.1585 53.9072C13.1063 53.9072 12.0696 53.8762 11.0483 53.8143C10.027 53.7524 9.00574 53.7215 7.98447 53.7215C6.93226 53.7215 5.86456 53.7679 4.7814 53.8607C3.72918 53.9226 2.67696 53.9536 1.62475 53.9536C1.31527 53.9536 1.16053 53.7524 1.16053 53.3501C1.16053 53.1644 1.19148 52.9942 1.25338 52.8395C1.31527 52.6847 1.47001 52.6074 1.71759 52.6074C2.08896 52.6074 2.46033 52.6228 2.8317 52.6538C3.20307 52.6538 3.57444 52.6538 3.94581 52.6538C4.31719 52.6538 4.64214 52.5609 4.92066 52.3753C5.23014 52.1896 5.40035 51.8956 5.4313 51.4932C5.49319 50.9362 5.50867 50.3791 5.47772 49.8221C5.47772 49.2341 5.47772 48.6615 5.47772 48.1045C5.47772 46.9904 5.47772 45.8763 5.47772 44.7622C5.47772 43.6171 5.47772 42.4875 5.47772 41.3734V33.2497C5.47772 31.4237 5.46225 29.6133 5.4313 27.8184C5.4313 25.9925 5.4313 24.182 5.4313 22.3871C5.4313 21.83 5.15277 21.5051 4.59571 21.4122C4.06961 21.2884 3.60539 21.2265 3.20307 21.2265C2.92455 21.2265 2.64602 21.242 2.36749 21.2729C2.08896 21.2729 1.82591 21.2729 1.57833 21.2729C1.36169 21.2729 1.2379 21.1801 1.20696 20.9944C1.20696 20.7778 1.20696 20.6076 1.20696 20.4838C1.20696 20.36 1.2379 20.2517 1.2998 20.1588C1.36169 20.035 1.45454 19.9731 1.57833 19.9731C2.5996 19.9731 3.62087 20.0041 4.64213 20.066C5.6634 20.1279 6.70015 20.1588 7.75237 20.1588C9.36164 20.1588 10.9709 20.1279 12.5802 20.066C14.1895 20.0041 15.7987 19.9731 17.408 19.9731C18.7078 19.9731 20.0076 20.1124 21.3074 20.3909C22.6381 20.6695 23.8451 21.1337 24.9283 21.7836C26.0424 22.4335 26.9244 23.2845 27.5743 24.3368C28.2551 25.389 28.5956 26.6888 28.5956 28.2362Z" fill="#FFD369"/>
</svg>
