<!-- Design 1: Modern Neon -->
<svg viewBox="0 0 1200 800">
  <defs>
    <filter id="neon-glow">
      <feGaussianBlur in="SourceGraphic" stdDeviation="2" />
      <feColorMatrix type="matrix" values="0 0 0 0 0   0 1 0 0 0   1 0 1 0 0  0 0 0 5 0"/>
    </filter>
  </defs>
  <rect width="1200" height="800" fill="#1a1a1a"/>
  <rect x="1150" y="330" width="25" height="140" fill="#ff00ff" filter="url(#neon-glow)"/>
  <rect x="25" y="330" width="25" height="140" fill="#00ffff" filter="url(#neon-glow)"/>
  <line x1="600" y1="0" x2="600" y2="800" stroke="#333" stroke-width="2" stroke-dasharray="10,10"/>
  <circle cx="600" cy="400" r="15" fill="#00ff00" filter="url(#neon-glow)"/>
</svg>

<!-- Design 2: Retro Arcade -->
<svg viewBox="0 0 1200 800">
  <rect width="1200" height="800" fill="#000000"/>
  <rect x="1150" y="330" width="25" height="140" fill="#ffffff"/>
  <rect x="25" y="330" width="25" height="140" fill="#ffffff"/>
  <line x1="600" y1="0" x2="600" y2="800" stroke="#ffffff" stroke-width="4" stroke-dasharray="20,20"/>
  <rect x="585" y="385" width="30" height="30" fill="#ffffff"/>
</svg>

<!-- Design 3: Minimalist -->
<svg viewBox="0 0 1200 800">
  <rect width="1200" height="800" fill="#f5f5f5"/>
  <rect x="1150" y="330" width="25" height="140" fill="#2d2d2d"/>
  <rect x="25" y="330" width="25" height="140" fill="#2d2d2d"/>
  <line x1="600" y1="0" x2="600" y2="800" stroke="#e0e0e0" stroke-width="2"/>
  <circle cx="600" cy="400" r="15" fill="#2d2d2d"/>
</svg>

<!-- Design 4: Synthwave -->
<svg viewBox="0 0 1200 800">
  <defs>
    <linearGradient id="synthwave" x1="0" y1="0" x2="0" y2="1">
      <stop offset="0%" stop-color="#ff1493"/>
      <stop offset="100%" stop-color="#4b0082"/>
    </linearGradient>
  </defs>
  <rect width="1200" height="800" fill="url(#synthwave)"/>
  <rect x="1150" y="330" width="25" height="140" fill="#00ffff"/>
  <rect x="25" y="330" width="25" height="140" fill="#ff00ff"/>
  <line x1="600" y1="0" x2="600" y2="800" stroke="#ffffff" stroke-width="3" stroke-dasharray="5,15"/>
  <circle cx="600" cy="400" r="15" fill="#ffffff"/>
</svg>

<!-- Design 5: Material Design -->
<svg viewBox="0 0 1200 800">
  <rect width="1200" height="800" fill="#fafafa"/>
  <rect x="1150" y="330" width="25" height="140" rx="12" fill="#2196f3"/>
  <rect x="25" y="330" width="25" height="140" rx="12" fill="#f44336"/>
  <line x1="600" y1="0" x2="600" y2="800" stroke="#e0e0e0" stroke-width="2"/>
  <circle cx="600" cy="400" r="15" fill="#4caf50"/>
</svg>