<svg width="704" height="404" viewBox="0 0 704 404" fill="none" xmlns="http://www.w3.org/2000/svg">
<path d="M702 2H2V402H702V2Z" fill="url(#paint0_linear_0_1)" stroke="#E3E2E2" stroke-width="4"/>
<path d="M352 2V402" stroke="#E3E2E2" stroke-width="2" stroke-dasharray="8 6"/>
<path opacity="0.8" d="M677 27H27V377H677V27Z" stroke="#E3E2E2" stroke-width="1.5"/>
<path opacity="0.4" d="M189.5 27V377" stroke="#FFD700"/>
<path opacity="0.4" d="M514.5 27V377" stroke="#FFD700"/>
<path opacity="0.5" d="M352 262C385.137 262 412 235.137 412 202C412 168.863 385.137 142 352 142C318.863 142 292 168.863 292 202C292 235.137 318.863 262 352 262Z" stroke="#FFD700"/>
<path opacity="0.6" d="M352 242C374.091 242 392 224.091 392 202C392 179.909 374.091 162 352 162C329.909 162 312 179.909 312 202C312 224.091 329.909 242 352 242Z" stroke="#E3E2E2"/>
<path opacity="0.3" d="M352 152L382 202L352 252L322 202L352 152Z" stroke="#FFD700"/>
<path opacity="0.5" d="M27 47C27 33.6667 33.6667 27 47 27" stroke="#FFD700" stroke-width="2"/>
<path opacity="0.5" d="M657 47C670.333 47 677 40.3333 677 27" stroke="#FFD700" stroke-width="2"/>
<path opacity="0.5" d="M27 357C27 370.333 33.6667 377 47 377" stroke="#FFD700" stroke-width="2"/>
<path opacity="0.5" d="M657 357C670.333 357 677 363.667 677 377" stroke="#FFD700" stroke-width="2"/>
<path d="M60 177H59C55.134 177 52 180.134 52 184V220C52 223.866 55.134 227 59 227H60C63.866 227 67 223.866 67 220V184C67 180.134 63.866 177 60 177Z" fill="url(#paint1_linear_0_1)" stroke="white" stroke-width="1.5"/>
<path d="M645 177H644C640.134 177 637 180.134 637 184V220C637 223.866 640.134 227 644 227H645C648.866 227 652 223.866 652 220V184C652 180.134 648.866 177 645 177Z" fill="url(#paint2_linear_0_1)" stroke="white" stroke-width="1.5"/>
<path d="M352 217C360.284 217 367 210.284 367 202C367 193.716 360.284 187 352 187C343.716 187 337 193.716 337 202C337 210.284 343.716 217 352 217Z" fill="url(#paint3_radial_0_1)"/>
<path d="M352 210C356.418 210 360 206.418 360 202C360 197.582 356.418 194 352 194C347.582 194 344 197.582 344 202C344 206.418 347.582 210 352 210Z" fill="#FFD700"/>
<path opacity="0.2" d="M352 322C418.274 322 472 268.274 472 202C472 135.726 418.274 82 352 82C285.726 82 232 135.726 232 202C232 268.274 285.726 322 352 322Z" stroke="#FFD700" stroke-width="0.5"/>
<path opacity="0.1" d="M352 382C451.411 382 532 301.411 532 202C532 102.589 451.411 22 352 22C252.589 22 172 102.589 172 202C172 301.411 252.589 382 352 382Z" stroke="#FFD700" stroke-width="0.5"/>
<defs>
<linearGradient id="paint0_linear_0_1" x1="2" y1="2" x2="34463.5" y2="60309.7" gradientUnits="userSpaceOnUse">
<stop stop-color="#4A1033"/>
<stop offset="1" stop-color="#903749"/>
</linearGradient>
<linearGradient id="paint1_linear_0_1" x1="52" y1="177" x2="1552" y2="177" gradientUnits="userSpaceOnUse">
<stop stop-color="#FFD700"/>
<stop offset="1" stop-color="#FFB900"/>
</linearGradient>
<linearGradient id="paint2_linear_0_1" x1="637" y1="177" x2="2137" y2="177" gradientUnits="userSpaceOnUse">
<stop stop-color="#00FF9D"/>
<stop offset="1" stop-color="#00CC7E"/>
</linearGradient>
<radialGradient id="paint3_radial_0_1" cx="0" cy="0" r="1" gradientUnits="userSpaceOnUse" gradientTransform="translate(1837 1687) scale(1500)">
<stop stop-color="#FFD700" stop-opacity="0.3"/>
<stop offset="1" stop-color="#FFD700" stop-opacity="0"/>
</radialGradient>
</defs>
</svg>
