<svg width="62" height="62" viewBox="0 0 62 62" fill="none" xmlns="http://www.w3.org/2000/svg">
<path d="M31 38.75C35.2802 38.75 38.75 35.2802 38.75 31C38.75 26.7198 35.2802 23.25 31 23.25C26.7198 23.25 23.25 26.7198 23.25 31C23.25 35.2802 26.7198 38.75 31 38.75Z" stroke="#FDD36D" stroke-width="1.5" stroke-miterlimit="10" stroke-linecap="round" stroke-linejoin="round"/>
<path d="M5.1665 33.2734V28.7267C5.1665 26.04 7.36234 23.8184 10.0748 23.8184C14.7507 23.8184 16.6623 20.5117 14.3115 16.4559C12.9682 14.1309 13.769 11.1084 16.1198 9.76504L20.589 7.20754C22.6298 5.99337 25.2648 6.71671 26.479 8.75754L26.7632 9.24837C29.0882 13.3042 32.9115 13.3042 35.2623 9.24837L35.5465 8.75754C36.7607 6.71671 39.3957 5.99337 41.4365 7.20754L45.9057 9.76504C48.2565 11.1084 49.0573 14.1309 47.714 16.4559C45.3632 20.5117 47.2748 23.8184 51.9507 23.8184C54.6373 23.8184 56.859 26.0142 56.859 28.7267V33.2734C56.859 35.96 54.6632 38.1817 51.9507 38.1817C47.2748 38.1817 45.3632 41.4884 47.714 45.5442C49.0573 47.895 48.2565 50.8917 45.9057 52.235L41.4365 54.7925C39.3957 56.0067 36.7607 55.2834 35.5465 53.2425L35.2623 52.7517C32.9373 48.6959 29.114 48.6959 26.7632 52.7517L26.479 53.2425C25.2648 55.2834 22.6298 56.0067 20.589 54.7925L16.1198 52.235C13.769 50.8917 12.9682 47.8692 14.3115 45.5442C16.6623 41.4884 14.7507 38.1817 10.0748 38.1817C7.36234 38.1817 5.1665 35.96 5.1665 33.2734Z" stroke="#FDD36D" stroke-width="1.5" stroke-miterlimit="10" stroke-linecap="round" stroke-linejoin="round"/>
</svg>
